<svg id="Capa_1" data-name="Capa 1" xmlns="http://www.w3.org/2000/svg" viewBox="0 0 74 74"><defs><style>.cls-1{fill:#b0f4c2;}.cls-2{fill:#14a83c;}</style></defs><title>Amniat_Icon</title><circle class="cls-1" cx="37" cy="37" r="37"/><path class="cls-2" d="M1264.38,1111.83a26.73,26.73,0,0,0-38,.24,1.44,1.44,0,0,0,2.06,2,23.85,23.85,0,1,1-6.77,16.64v-.3l2.37,2.38a1.48,1.48,0,0,0,1,.42,1.5,1.5,0,0,0,1-.42,1.43,1.43,0,0,0,0-2l-4.82-4.83a1.43,1.43,0,0,0-2,0l-4.83,4.83a1.43,1.43,0,0,0,0,2,1.46,1.46,0,0,0,1,.42,1.5,1.5,0,0,0,1-.42l2.37-2.38v.3a26.73,26.73,0,1,0,45.62-18.9Z" transform="translate(-1208 -1094)"/><path class="cls-2" d="M1245.48,1115.19a8.49,8.49,0,0,0-8.48,8.48v4.09h-2.64a1.44,1.44,0,0,0-1.43,1.44v14.35a1.44,1.44,0,0,0,1.43,1.44h22.25a1.45,1.45,0,0,0,1.44-1.44v-14.34a1.45,1.45,0,0,0-1.44-1.44H1254v-4.09A8.5,8.5,0,0,0,1245.48,1115.19Zm-5.6,8.49a5.6,5.6,0,1,1,11.2,0v4.09h-11.2v-4.09Zm15.29,18.43H1235.8v-11.47h19.37Z" transform="translate(-1208 -1094)"/></svg>