<svg xmlns="http://www.w3.org/2000/svg" width="1599.405" height="1621.885" viewBox="0 0 1599.405 1621.885">
  <path id="Back_Taze_Tarin" data-name="Back Taze Tarin" d="M348.734,249.441c52.639,4,74.679-38.471,99.415-93.315C515.852,6.006,666.626,20.457,717.21,112.891c35.857,65.493,113.1,52.042,175.611,26.381,61.5-25.22,166.31-49.44,249.784-19.3,72.927,26.421,102.853,121.3,169.309,115.453,144.91-12.73,218.107,157.286,191.821,231.466-17.12,48.4-25.646,102.562-11.694,152.362,15.333,54.844,50.55,98.279,78.723,145.437s51.157,106.085,37.07,161.41c-12.031,47.358-47.989,80.064-70.332,121.978-69.287,129.984-.741,329.224-93.079,437.591-66.119,77.542-173.926,59.648-266.432,74.46-77.139,12.33-149.729,50.841-226.531,65.893-155.492,30.545-312.568-36.71-470.216-38.591-55.538-.68-112.12,6.686-165.905-9.608-72.632-22.654-131.457-85.843-157.716-169.416-34.374-113.291-1.82-244.436-40.642-355.726C85.369,962.013,8.061,888.234,12.914,790.4c3.033-60.889,38.047-111.85,62.143-165.893C110.879,544.2,63.463,226.743,348.734,249.441ZM807.661,102.363c-13.851,0-25.039,10.208-25.039,22.778s11.222,21.737,25.039,22.818c44.99,3.523,44.99-18.095,44.99-30.665C852.651,97.159,821.512,102.363,807.661,102.363Zm456.9,97.2c12.174,11.941,27.239,18.953,43,20.016a14.786,14.786,0,0,0,11.93-3.2,13.19,13.19,0,0,0,.876-16.293,22.61,22.61,0,0,0-8.459-5.645,27.462,27.462,0,0,1-13.109-11.569,11.671,11.671,0,0,0-2.966-4.444C1287.111,172.539,1248.727,184.028,1264.566,199.561Zm76.634,20.016a16.772,16.772,0,0,0,12.267-1.4c2.561-1,5.7-3.163,5.021-6.2a5.413,5.413,0,0,0-2.662-3.2c-5.223-3.323-12.031-5.765-17.322-1.521s-1.281,10.849,2.7,12.45Zm182.957,429.545a45.269,45.269,0,0,0,7.919,18.975,155.634,155.634,0,0,0,22.95,31.1,21.708,21.708,0,0,0,13.244,7.166A18.692,18.692,0,0,0,1580.739,701c8.968-7.68,14.821-19.467,16.142-32.506,1.685-17.654-5.223-34.788-13.244-49.8-4.954-9.327-10.75-18.575-19.074-23.539-13.952-8.367-23.186-1.081-26.96,13.571C1533.9,622.26,1522.708,634.07,1524.157,649.122ZM40.076,1059.452c-7.347,7.686-.708,30.184,1.449,45.036A30.843,30.843,0,0,0,45.4,1117.1c3.37,4.884,8.627,6.846,13.649,8.607,8.964,3.082,19.782,5.684,26.623-1.761,5.055-5.564,5.763-14.572,5.763-22.7q0-11.161-1.011-22.263a27.229,27.229,0,0,0-2.325-10.243,19.834,19.834,0,0,0-9.268-8.007C66.025,1054.408,47.422,1051.765,40.076,1059.452Zm448.817,563.532c-4.347,1.041-9.537,3.243-10.11,8.407-.505,4.284,2.527,8.007,5.426,10.529,23.994,21.217,56.245,22.578,86.272,23.1a22.222,22.222,0,0,0,10.346-1.521c6.469-3.733,9.331-12.841,6.5-20.7a25.881,25.881,0,0,0-4.617-7.086C558.651,1607.852,519.02,1615.818,488.892,1622.984Zm598.715-14.371c-26.96,23.5.3,44.475,34.475,28.9a436,436,0,0,1,54.9-22.3c6.1-1.8,42.934-11.249,42.934-21.1,0-26.021-41.485-20.016-67.6-15.532-23.352,3.183-45.6,13.53-64.569,30.024Z" transform="translate(-12.695 -43.228)" fill="#e4eeff"/>
</svg>
