<svg id="Layer_1" data-name="Layer 1" xmlns="http://www.w3.org/2000/svg" viewBox="0 0 1599.4 993.34"><defs><style>.cls-1{fill:#e4eeff;}</style></defs><title>Back Akhbaro Etelaeie_2</title><path id="Back_Akhbaro_Etelaeie" data-name="Back Akhbaro Etelaeie" class="cls-1" d="M1263.37,840.29c-52.64-2.18-74.68,21-99.42,50.87-67.7,81.83-218.48,74-269.06,23.57C859,879,781.79,886.36,719.28,900.35,657.78,914.09,553,927.3,469.49,910.86c-72.92-14.4-102.85-66.12-169.3-62.93-144.91,6.94-218.11-85.75-191.83-126.18,17.12-26.39,25.65-55.91,11.7-83.06-15.33-29.9-50.55-53.58-78.72-79.28s-51.16-57.83-37.07-88c12-25.82,48-43.65,70.33-66.5,69.29-70.86.74-179.47,93.08-238.55,66.12-42.27,173.92-32.51,266.43-40.59,77.14-6.72,218.52-85,295.32-93.24,155.49-16.65,220.73,100.22,378.38,101.24,55.54.37,143.51-68.34,197.3-59.46,72.63,12.35,123.11,88.61,149.37,134.17,34.37,61.76,1.82,133.25,40.64,193.92,31.61,49.43,108.92,89.65,104.07,143-3,33.2-38,61-62.15,90.44C1501.22,679.6,1548.64,852.66,1263.37,840.29Z" transform="translate(0 -2.5)"/><path class="cls-1" d="M804.44,994.74c13.85,0,25-12.53,25-28s-11.22-26.68-25-28c-45-4.33-45,22.21-45,37.64C759.45,1001.13,790.59,994.74,804.44,994.74Z" transform="translate(0 -2.5)"/><path class="cls-1" d="M347.54,968c-12.18-14.65-27.24-23.26-43-24.56-4.18-.92-8.43.48-11.93,3.93-4,5.19-4.39,14.1-.88,20a22.93,22.93,0,0,0,8.46,6.92c5.29,2.61,9.87,7.58,13.11,14.2a14.85,14.85,0,0,0,3,5.46c8.72,7.22,47.1-6.88,31.26-25.94Z" transform="translate(0 -2.5)"/><path class="cls-1" d="M270.9,943.41a14,14,0,0,0-12.26,1.72c-2.56,1.22-5.7,3.88-5,7.61a6.48,6.48,0,0,0,2.66,3.93c5.22,4.08,12,7.08,17.32,1.87s1.28-13.32-2.7-15.28Z" transform="translate(0 -2.5)"/><path class="cls-1" d="M87.94,751.67A62.84,62.84,0,0,0,80,728.38,192.92,192.92,0,0,0,57.07,690.2c-3.65-4.93-8.3-8-13.24-8.8-4.54.13-8.93,2.44-12.47,6.59-9,9.42-14.82,23.89-16.14,39.9-1.69,21.66,5.22,42.7,13.24,61.12,5,11.45,10.75,22.8,19.08,28.89,14,10.27,23.18,1.33,27-16.66C78.2,784.64,89.39,770.14,87.94,751.67Z" transform="translate(0 -2.5)"/><path class="cls-1" d="M1572,248.05c7.35-9.43.71-37.05-1.45-55.28a44.11,44.11,0,0,0-3.87-15.47c-3.37-6-8.63-8.4-13.65-10.57-9-3.78-19.78-7-26.62,2.17-5.06,6.83-5.77,17.88-5.77,27.85q0,13.71,1,27.33a39.65,39.65,0,0,0,2.32,12.57,21.67,21.67,0,0,0,9.27,9.83C1546.07,254.24,1564.68,257.48,1572,248.05Z" transform="translate(0 -2.5)"/><path class="cls-1" d="M1123.21,54.2c4.34-1.28,9.53-4,10.11-10.32.5-5.26-2.53-9.82-5.43-12.92-24-26-56.24-27.71-86.27-28.35a18.53,18.53,0,0,0-10.35,1.87c-6.47,4.58-9.33,15.76-6.5,25.4a33.51,33.51,0,0,0,4.62,8.7c24.06,34.19,63.69,24.41,93.82,15.62Z" transform="translate(0 -2.5)"/><path class="cls-1" d="M524.49,44.56c27-28.84-.3-54.59-34.47-35.47a395.65,395.65,0,0,1-54.9,27.37c-6.1,2.21-42.94,13.8-42.94,25.89,0,31.94,41.49,24.57,67.6,19.06,23.36-3.9,45.6-16.6,64.57-36.85Z" transform="translate(0 -2.5)"/></svg>