<svg id="Layer_1" data-name="Layer 1" xmlns="http://www.w3.org/2000/svg" viewBox="0 0 2020.55 915.12"><defs><style>.cls-1{fill:#e4eeff;}</style></defs><title>Back Khadamat_2</title><path id="Back_Khadamat" data-name="Back Khadamat" class="cls-1" d="M164.2,604c21.2-25.6-21.6-42.21-78.1-61.79C-34,492.28,0,408.5,85,402.87c88-9.06,46.5-49.24,36.1-83.69C110.9,285.27,115.4,230,177,192.59c53.9-32.68,183,14.32,197.11-19.46C384.92-51,703.2,36.51,781.9,59.43c51.3,15,112.1,51.41,174.8,51.11,69.1-.3,131-37,195.1-44.75s140.4-11.27,200.8,3.09c51.7,12.29,147,87.59,189.07,104.25,130.6,51.7,317.33-8.89,415.23,51.37C2027,267.64,1926.45,320,1914.65,368c-9.8,40,58.25,79.88,51.75,120-13.1,81.29-154.11,88.46-205.81,166.48-18.2,27.5-14.49,118.44-50.49,143-49.4,33.05-141.9,53.86-248.1,55.77-143.5,2-261.7-46.49-404.3-42-116.2,3.65-254.28,91-367.38,75.5C633.89,879,508.16,862.17,471.63,784.85c-12.53-26.51-44-37.76-70.77-25.81C259.6,822.11,64.08,723.44,164.2,604Z" transform="translate(-8.15 -5)"/><path class="cls-1" d="M976.22,88.78a54.73,54.73,0,0,0,24.7-3.3,188.24,188.24,0,0,0,43.6-17.1,26.75,26.75,0,0,0,12.6-13.3,22.61,22.61,0,0,0-2.4-16.3c-6.2-12.9-18.2-23.5-33-29.1-20.2-7.5-42.4-4.8-62.5-.1-12.5,2.9-25.1,6.8-33.6,15-14.2,13.7-8.6,26.8,7.4,35.9,14.8,8.5,25.1,25.3,43.2,28.3Z" transform="translate(-8.15 -5)"/><path class="cls-1" d="M41.51,178.82c-4.4,16.2,4.1,32.5,18.8,36.5s29-6.3,34.6-22.2c18.3-51.6-7.1-58.4-21.8-62.3C49.51,124.42,45.81,162.52,41.51,178.82Z" transform="translate(-8.15 -5)"/><path class="cls-1" d="M298.91,135.89c17.8-10.5,30.8-26,37-44.1a17.87,17.87,0,0,0,0-15,16,16,0,0,0-18.8-6.1,29,29,0,0,0-9.3,8.1,33.84,33.84,0,0,1-17.7,11.7,13.1,13.1,0,0,0-6.1,2.1c-9.7,8.3-8.3,56.9,14.9,43.3Z" transform="translate(-8.15 -5)"/><path class="cls-1" d="M346.41,52.39a20.19,20.19,0,0,0,2.2-14.8c-.4-3.3-1.9-7.7-5.7-7.8a6.8,6.8,0,0,0-4.6,2.1c-5.5,5.1-10.5,12.3-7.2,19.8s12.3,4.9,15.4.7Z" transform="translate(-8.15 -5)"/><path class="cls-1" d="M1006.81,907c6.7,11,35.1,10.3,53.2,12.5a36,36,0,0,0,16-.6c6.8-2.4,10.7-8,14.4-13.3,6.4-9.5,12.9-21.4,6.3-31.7-4.9-7.7-15.3-11.3-24.8-13.9-8.7-2.3-17.5-4.3-26.4-5.8a32,32,0,0,0-12.7-.5,23.8,23.8,0,0,0-12.3,8.3C1009,875,1000.11,896,1006.81,907Z" transform="translate(-8.15 -5)"/><path class="cls-1" d="M1808.11,824.62c-.1,5.4.8,12.2,6.7,14.5,4.9,1.9,10.2-.4,14-3,32.4-21.4,44.1-58.8,54.2-93.8a26.93,26.93,0,0,0,1.5-12.6c-2.3-8.8-12.1-15-22.2-14.1a31.32,31.32,0,0,0-9.8,3.2c-40.3,19.3-43.4,68.2-44.4,105.8Z" transform="translate(-8.15 -5)"/><path class="cls-1" d="M1982.91,456.35c19.1,39,52.2,13.6,44.7-31.3a534.25,534.25,0,0,1-8.9-71.3c-.2-7.7.3-53.8-11.2-56.9-30.5-8.2-36.5,42.3-39.4,74.3-3.6,28.4,1.5,57.7,14.9,85.1Z" transform="translate(-8.15 -5)"/></svg>