<svg id="Layer_1" data-name="Layer 1" xmlns="http://www.w3.org/2000/svg" xmlns:xlink="http://www.w3.org/1999/xlink" viewBox="0 0 1388.25 946.4"><defs><style>.cls-1{fill:url(#linear-gradient);}.cls-2{fill:url(#linear-gradient-2);}.cls-3{fill:url(#linear-gradient-3);}.cls-4{fill:url(#linear-gradient-4);}.cls-5,.cls-6{fill:none;stroke:#0c34c5;stroke-linecap:round;stroke-linejoin:round;stroke-width:5.1px;}.cls-5{stroke-dasharray:8.49 10.19;}.cls-7{fill:#05abdf;}.cls-8{fill:#2dd1e2;}.cls-9{fill:#0d8dbf;}</style><linearGradient id="linear-gradient" x1="405.26" y1="476.81" x2="1486.02" y2="476.81" gradientTransform="translate(0 -2.11)" gradientUnits="userSpaceOnUse"><stop offset="0" stop-color="#682991"/><stop offset="1" stop-color="#017ec8"/></linearGradient><linearGradient id="linear-gradient-2" x1="405.26" y1="582.46" x2="1486.02" y2="582.46" xlink:href="#linear-gradient"/><linearGradient id="linear-gradient-3" x1="405.26" y1="673.21" x2="1486.02" y2="673.21" xlink:href="#linear-gradient"/><linearGradient id="linear-gradient-4" x1="405.26" y1="577.01" x2="1486.02" y2="577.01" xlink:href="#linear-gradient"/></defs><title>Khadamat</title><g id="Asre_Vira" data-name="Asre Vira"><path class="cls-1" d="M442.4,595c0,2.8-1.3,5.2-4,7.2a9.88,9.88,0,0,1-5.6,1.3H412q-6.75,0-9-6.3a10.12,10.12,0,0,1-.4-2.9V354.9a8.52,8.52,0,0,1,2.5-6.3,8.63,8.63,0,0,1,6.3-2.7H434a8.11,8.11,0,0,1,6.9,3.8,9.48,9.48,0,0,1,1.6,4.9V595Z" transform="translate(-252.1 -68.9)"/><path class="cls-2" d="M626.7,603.5q25.8,0,42.3-20.2,15.45-18.75,15.5-45.5V483.6h-.2V478a8.52,8.52,0,0,0-2.5-6.3,8.63,8.63,0,0,0-6.3-2.7H652.7a8.11,8.11,0,0,0-6.9,3.8,9.48,9.48,0,0,0-1.6,4.9v54.4c0,11.4-2.1,19.3-6.4,24s-12,6.9-23.2,6.9H568.5a8.75,8.75,0,0,0-1.6.2V563c-10.9,0-20.7-1.8-29.3-5.4v-80a8.65,8.65,0,0,0-1.6-4.9,8.23,8.23,0,0,0-6.9-3.8H505.8a8.88,8.88,0,0,0-8.8,9v127h.4c0,7.6-5.8,17.6-17.5,30-12.5,11-28.4,16.6-47.5,16.6h-2.2a10.81,10.81,0,0,0-5.6,3.1,8.59,8.59,0,0,0-2.5,6.3v21.7a10.12,10.12,0,0,0,.4,2.9q2.25,6.3,9,6.3h7.4q40.5,0,71-28.2c18.2-22.3,27.3-41.2,27.3-56.9h.2V592.6a46.09,46.09,0,0,0,29.3,10.8v-.3a11.15,11.15,0,0,0,2.7.3h57.3Z" transform="translate(-252.1 -68.9)"/><path class="cls-3" d="M687.7,654.3a8.68,8.68,0,0,0-7.4-4H589.4a8.74,8.74,0,0,0-6.5,2.9,8.91,8.91,0,0,0-2.7,6.5v22.6a11,11,0,0,0,.4,3.1,9.29,9.29,0,0,0,9.4,6.5h89.1a10.39,10.39,0,0,0,5.8-1.3c2.8-2.1,4.3-4.6,4.3-7.6V659.5A10.61,10.61,0,0,0,687.7,654.3Z" transform="translate(-252.1 -68.9)"/><path class="cls-4" d="M875.4,595.2q0,40.35-30.4,68.5c-20.2,18.8-43.9,28.2-70.9,28.2H744.3q-6.75,0-9-6.3a10.12,10.12,0,0,1-.4-2.9V661a8.52,8.52,0,0,1,2.5-6.3A9,9,0,0,1,743,652v-.4h24.6q28.65,0,47.5-16.6c12.5-11.1,19.2-21.6,19.9-31.6H781.2c-10.8,0-21-3.5-30.7-10.5-1.9-1.6-4.1-3.7-6.5-6-9.3-10.3-13.9-22.1-13.9-35.4V509.8c0-12.7,4.3-24,12.8-34a57,57,0,0,1,8.3-7.6c9.4-6.9,19.5-10.3,30.2-10.3H824c11,0,21.4,3.7,31.1,11a89.46,89.46,0,0,1,7.2,6.5q5.4,6.75,7.2,10.8c3.9,7,5.8,15.5,5.8,25.3v83.7ZM790,494a47.8,47.8,0,1,0,33.9,14C814.6,498.6,803.3,494,790,494Z" transform="translate(-252.1 -68.9)"/><path class="cls-4" d="M1488.9,567.2c-1.8-2.5-6.2-3.9-13.2-4a.76.76,0,0,0,.2-.4h-53.1c-10.9,0-19.3-5.2-25.3-15.7-5.1-8.5-7.6-15.6-7.6-21.3,0-12.8,5.2-22,15.5-27.3q6.9-3.6,16.8-3.6c13.6,0,24.6,3,32.9,9l12.5,9.6,3.8.9,8.5-7.8c5.4-5.8,8.5-11,9.4-15.5s0-7.8-2.7-10.1c-1.2-1.6-2.6-3.5-4.3-5.6a64.4,64.4,0,0,0-7.2-6.5c-9.7-7.3-20.1-11-31.1-11h-42.6c-10.8,0-20.8,3.4-30.2,10.3a57,57,0,0,0-8.3,7.6c-8.5,10-12.8,21.4-12.8,34v25.3a50.47,50.47,0,0,0,8.3,28h-25.3a40.75,40.75,0,0,0,1.8-12.1V509.8c0-12.5-5.4-23.9-16.1-34-4.5-3.7-7.9-6.2-10.3-7.4a74.94,74.94,0,0,0-37.6-10.1h-62.5a76.41,76.41,0,0,0-38.8,10.5,110.58,110.58,0,0,0-9,6.7q-6.9,6.45-9,10.8c-4.9,7-7.4,15.4-7.4,25.1v51.7c-20.2,0-30.2-11.5-30.2-34.5V508.2h-.2a13.47,13.47,0,0,0-1.6-3.8,8.23,8.23,0,0,0-6.9-3.8H1083a8.88,8.88,0,0,0-8.8,9v24.2c0,19.6-9.4,29.3-28.2,29.3h-13.2c-10.9,0-20.7-1.8-29.3-5.4v-80a8.65,8.65,0,0,0-1.6-4.9A8.23,8.23,0,0,0,995,469H971.7a8.88,8.88,0,0,0-8.8,9V605h.4c0,7.6-5.8,17.6-17.5,30-12.5,11-28.4,16.6-47.5,16.6h-2.2a10.81,10.81,0,0,0-5.6,3.1A8.59,8.59,0,0,0,888,661v21.7a10.12,10.12,0,0,0,.4,2.9q2.25,6.3,9,6.3h7.4q40.5,0,71-28.2c18.2-22.3,27.3-41.2,27.3-56.9h.2V592.7a44.75,44.75,0,0,0,20.2,9.7v1.1h19.3q30.9,0,54.4-23.7c11.8,15.8,28.1,23.7,49.1,23.7h338.2l-.2-.7c.7-.3,1.4-.6,2-.9a8.47,8.47,0,0,0,4-7.2V572.1A8.37,8.37,0,0,0,1488.9,567.2Zm-250.8-14.7a47.56,47.56,0,1,1,14-33.7A46.07,46.07,0,0,1,1238.1,552.5Z" transform="translate(-252.1 -68.9)"/><polyline class="cls-5" points="1259.8 529.5 1327 529.5 1327 722.3"/><circle class="cls-6" cx="1327" cy="738.4" r="7.8"/><polyline class="cls-5" points="1259.8 417.4 1327 417.4 1327 224.5"/><circle class="cls-6" cx="1327" cy="208.4" r="7.8"/><line class="cls-5" x1="1162.2" y1="369.2" x2="1162.2" y2="224.5"/><circle class="cls-6" cx="1162.2" cy="208.4" r="7.8"/><line class="cls-5" x1="1005" y1="369.2" x2="1005" y2="224.5"/><circle class="cls-6" cx="1005" cy="208.4" r="7.8"/><line class="cls-5" x1="847.7" y1="369.2" x2="847.7" y2="224.5"/><circle class="cls-6" cx="847.7" cy="208.4" r="7.8"/><line class="cls-5" x1="690.5" y1="369.2" x2="690.5" y2="224.5"/><circle class="cls-6" cx="690.5" cy="208.4" r="7.8"/><line class="cls-5" x1="533.3" y1="369.2" x2="533.3" y2="224.5"/><circle class="cls-6" cx="533.3" cy="208.4" r="7.8"/><line class="cls-5" x1="376" y1="369.2" x2="376" y2="224.5"/><circle class="cls-6" cx="376" cy="208.4" r="7.8"/><line class="cls-5" x1="218.8" y1="369.2" x2="218.8" y2="224.5"/><circle class="cls-6" cx="218.8" cy="208.4" r="7.8"/><line class="cls-5" x1="218.8" y1="630.6" x2="218.8" y2="722.3"/><circle class="cls-6" cx="218.8" cy="738.4" r="7.8"/><line class="cls-5" x1="376" y1="630.6" x2="376" y2="722.3"/><circle class="cls-6" cx="376" cy="738.4" r="7.8"/><line class="cls-5" x1="533.3" y1="630.6" x2="533.3" y2="722.3"/><circle class="cls-6" cx="533.3" cy="738.4" r="7.8"/><line class="cls-5" x1="690.5" y1="630.6" x2="690.5" y2="722.3"/><circle class="cls-6" cx="690.5" cy="738.4" r="7.8"/><line class="cls-5" x1="847.7" y1="577.6" x2="847.7" y2="722.3"/><circle class="cls-6" cx="847.7" cy="738.4" r="7.8"/><line class="cls-5" x1="1005" y1="577.6" x2="1005" y2="722.3"/><circle class="cls-6" cx="1005" cy="738.4" r="7.8"/><line class="cls-5" x1="1162.2" y1="577.6" x2="1162.2" y2="722.3"/><circle class="cls-6" cx="1162.2" cy="738.4" r="7.8"/><polyline class="cls-5" points="125.6 529.5 58.4 529.5 58.4 722.3"/><circle class="cls-6" cx="58.4" cy="738.4" r="7.8"/><polyline class="cls-5" points="125.6 417.4 58.4 417.4 58.4 224.5"/><circle class="cls-6" cx="58.4" cy="208.4" r="7.8"/></g><g id="Card_Visit" data-name="Card Visit"><g id="_0012" data-name=" 0012"><path id="Path_145" data-name="Path 145" class="cls-7" d="M947,955.4H887.3A11.06,11.06,0,0,1,876.6,944V907.4A11.06,11.06,0,0,1,887.3,896h59.5a11.06,11.06,0,0,1,10.7,11.4V944a10.69,10.69,0,0,1-10.1,11.4Zm-59.8-51.9a3.61,3.61,0,0,0-3.1,3.8v36.6a3.61,3.61,0,0,0,3.1,3.8h59.5a3.47,3.47,0,0,0,3.1-3.8h0V907.3a3.61,3.61,0,0,0-3.1-3.8Z" transform="translate(-252.1 -68.9)"/><path id="Path_146" data-name="Path 146" class="cls-7" d="M942.2,932.7H930.8a2.27,2.27,0,0,0-2.1,2.5,2.34,2.34,0,0,0,2.1,2.1h11.4a2.27,2.27,0,0,0,2.1-2.5A2.44,2.44,0,0,0,942.2,932.7Z" transform="translate(-252.1 -68.9)"/><path id="Path_147" data-name="Path 147" class="cls-7" d="M922.9,932.7H911.5a2.27,2.27,0,0,0-2.1,2.5,2.34,2.34,0,0,0,2.1,2.1h11.4a2.27,2.27,0,0,0,2.1-2.5A2.55,2.55,0,0,0,922.9,932.7Z" transform="translate(-252.1 -68.9)"/><path id="Path_148" data-name="Path 148" class="cls-7" d="M903.5,932.7H892a2.37,2.37,0,0,0-2.1,2.6v.1a2.34,2.34,0,0,0,2.1,2.1h11.4a2.43,2.43,0,0,0,.1-4.8Z" transform="translate(-252.1 -68.9)"/><path id="Path_149" data-name="Path 149" class="cls-7" d="M901.9,909h-5.3a6.91,6.91,0,0,0-6.9,6.9v5.5a7.22,7.22,0,0,0,6.9,7.1h5.3a7.26,7.26,0,0,0,7.1-7.1v-5.3A7.26,7.26,0,0,0,901.9,909Zm2.3,12.2a2.29,2.29,0,0,1-2.1,2.3h-5.5a2.26,2.26,0,0,1-2.3-2.3v-5.3a2.29,2.29,0,0,1,2.1-2.3h5.5a2.29,2.29,0,0,1,2.3,2.1v5.5Z" transform="translate(-252.1 -68.9)"/><path id="Path_150" data-name="Path 150" class="cls-8" d="M941,1015.3a9.26,9.26,0,0,1-2.3-.4,8.59,8.59,0,0,1-5.3-4h0l-21-35.7a9,9,0,0,1,3.2-12.2l9.3-5.3,3.8,6.7-9.3,5.3a1.32,1.32,0,0,0-.6,1.7l21,35.7a1,1,0,0,0,.8.6,1.23,1.23,0,0,0,1-.2l58.8-34.3a1,1,0,0,0,.6-.8,1.23,1.23,0,0,0-.2-1l-21-35.7a1,1,0,0,0-.8-.6,1.23,1.23,0,0,0-1,.2L966.6,942l-3.8-6.7,11.4-6.7a9.71,9.71,0,0,1,6.9-1,8.59,8.59,0,0,1,5.3,4v.2l21,35.7a9.19,9.19,0,0,1,1,6.7,9.28,9.28,0,0,1-4,5.5h-.2L945.4,1014A7.58,7.58,0,0,1,941,1015.3Z" transform="translate(-252.1 -68.9)"/><rect id="Rectangle_35" data-name="Rectangle 35" class="cls-8" x="926.18" y="973.88" width="72.5" height="7.6" transform="translate(-614.59 552.81) rotate(-30.41)"/></g></g><g id="Gardeshgari"><g id="_0007" data-name=" 0007"><path id="Path_139" data-name="Path 139" class="cls-9" d="M1136.5,949.8c-.2.4-.6,1-1,1a.43.43,0,0,0-.4.4h0c0,.2-.2.4-.4.6a1.23,1.23,0,0,0-.4.8.76.76,0,0,1-.2.4,3.17,3.17,0,0,0,.4,1.6c.2.2.4.4.6.4.4,0,1.4-.6,1.4-.8.2-.6.4-1,.6-1.6a11.38,11.38,0,0,0,1-4.5A4.36,4.36,0,0,0,1136.5,949.8Z" transform="translate(-252.1 -68.9)"/><path id="Path_140" data-name="Path 140" class="cls-9" d="M1108.1,884a45.9,45.9,0,1,0,45.9,45.9h0A46,46,0,0,0,1108.1,884Zm39.3,56.1a1.8,1.8,0,0,1-.2,1c-.2.4-.2.8-.4,1.2a1.8,1.8,0,0,1-.2,1,15.39,15.39,0,0,0-.8,1.9,8.11,8.11,0,0,1-1,1.8c-.2.2-.4.4-.4.6a4.35,4.35,0,0,1-1,1.9,1.42,1.42,0,0,0-.2.6c0,.2,0,.4-.2.4s-.4.2-.4.6-.2.8-.4.8-.4.4-.6.8-.4.5-.6.8a.68.68,0,0,0-.4.6,17.57,17.57,0,0,1-2.9,3.7c-.4.4-.8,1-1.2,1.4,0,.2,0,.2-.2.2h0c-.2,0-.8.4-2.7,2.3-.4.2-.6.6-1,.8a.43.43,0,0,0-.4.4c0,.2-.2.2-.4.2a.76.76,0,0,0-.4.2.22.22,0,0,1-.2.2h0a3.92,3.92,0,0,0-1.4.8,3.22,3.22,0,0,1-1.4.8.43.43,0,0,0-.4.4c-.2.2-.4.4-.6.4a.76.76,0,0,0-.4.2,1.42,1.42,0,0,1-.6.2.91.91,0,0,0-.8.4,8.13,8.13,0,0,1-2.9,1.2c-.2,0-.6.2-.6.4-.2.4-.6.4-2.7.8a3.71,3.71,0,0,0-1.4.4,19.81,19.81,0,0,1-3.3.8,51.6,51.6,0,0,1-13.6,0c-2.9-.4-2.9-.6-3.3-1.9a2.07,2.07,0,0,0-.6-1c-.2-.2-.6-.8-.2-1.2a8.81,8.81,0,0,0,.8-3.9,2,2,0,0,1,.6-1.4c.4-.2.6-.8.6-1.9a3.7,3.7,0,0,1,1.4-2.9,3.19,3.19,0,0,0,1.4-2.7,5.84,5.84,0,0,1,.4-1.8,2.19,2.19,0,0,0,.2-1.6,7.79,7.79,0,0,1,.4-2.1c.2-.8.2-.8-.2-1.2s-.6-.4-.4-.6-1.2-1-1.9-1.2a1.23,1.23,0,0,1-.8-.4.52.52,0,0,0-.4-.2,5.82,5.82,0,0,1-2.5-1.2,1.42,1.42,0,0,0-.6-.2,3.11,3.11,0,0,1-1.6-1.2q-1.2-1.2-1.8-1.2a2.75,2.75,0,0,1-1.6-1,3.1,3.1,0,0,0-2.3-1.2,5.84,5.84,0,0,1-1.8-.4c-.6-.4-2.3-.6-2.5-.2a3,3,0,0,1-2.1,1.2c-1.6.2-1.8,0-1.9-1.6v-1.2l-1.2-.2c-1-.2-1.2-.2-1-.8a1.28,1.28,0,0,1,.4-1c.2-.4.2-.8-.2-1a.52.52,0,0,0-.4-.2c-.6,0-1,.2-1.4,1-.2.4-.6.6-1.4.6s-1,0-1.2-.8c-.4-1.8,0-3.9.6-4.3a3.18,3.18,0,0,1,1.4-.2c1.4,0,1.9-.2,1.9-.6,0-.2,0-.4.2-.4h0c.4,0,1.8,1.4,1.6,1.6s.6,1.2,1.4,1.4.8.2.8-.6a1.23,1.23,0,0,0-.2-1,2.54,2.54,0,0,1-.2-1.2c0-1,.2-1.2,1.8-2.7.4-.2.6-.6,1-1,0-.6.8-1.9,1.2-1.9a4.14,4.14,0,0,0,1.8-1.9c0-.2.2-.4,1.2-.4a4.4,4.4,0,0,0,1.6-.2,2.45,2.45,0,0,1,1.2-.4c.6-.2.8-.4.8-1s.2-.8.4-.4a2.56,2.56,0,0,0,2.9,0c.4-.6.4-1.8-.2-1.8s-.4-.4-.4-1.9,0-1.8-.4-2.1-.4-1-.6-2.1c-.2-1.9-.2-1.9-.8-1.8a5.3,5.3,0,0,0-1,.6c-.2.4-.4.4-.6.4s0-.4.2-.6c.6-.6.6-1.6,0-1.6-.4,0-.6-.2-.8-.6a8.79,8.79,0,0,0-1-.6c-1,0-1.2,0-1.4,1a4.42,4.42,0,0,1-.6,1.6,1.42,1.42,0,0,0-.4,1.4v.8a10.59,10.59,0,0,0-1.2,1l-1,1.6-1-1.6a5.08,5.08,0,0,1-1-2.9c0-1.6.4-2.1,2.3-3.1l1.4-.8v1c-.2,1.2.2,1.2,1.6.6.8-.4,1.2-1,.6-1.4s-.2-.4.4-.4,1-.4,1.6-2.1c.4-1,.6-1.6,1-1.6,1-.2.8,1.8-.2,2.9-.6.8-1,2.7-.4,2.7q.3,0,.6.6c.2.4.6.8,1,.6,1.2,0,1.6-.6,1.6-1.6s0-1,.8-1,1-1,.8-2.1a1.27,1.27,0,0,1,0-1.2,2.32,2.32,0,0,0-.4-2.5c-.4-.4-.6-.8-.4-1.2.4-1.4-.6-2.3-2.3-2.3a2.45,2.45,0,0,1-1.6-.6c-.8-.4-1-.4-1.4-.2a8.49,8.49,0,0,0-2.7,3.5,1.89,1.89,0,0,1-.8,1,10.59,10.59,0,0,0-1.2,1c-.6.6-1.2.6-1.2,0,0-.2.2-.6.4-.6.6,0,1.6-.8,1.6-1.2a.43.43,0,0,1,.4-.4.43.43,0,0,0,.4-.4,3.92,3.92,0,0,1,.8-1.4,7.5,7.5,0,0,0,.8-1.8c0-.6,0-.8.4-.8a.91.91,0,0,0,.8-.4,1.78,1.78,0,0,1,1-.4c.6,0,.6.2.6.8s0,.8.6.8,1.8-1.2,1.6-1.8c-.4-1.2-.4-1.2,1-1.2h1.2l-.6.6a5.64,5.64,0,0,0-.4,1.2c0,.6.2.8.8,1s1,.4,1.6,0c.4-.2.6-.6.8-.8a7.68,7.68,0,0,1,3.3-2.9.73.73,0,0,0,.6-.2c.2-.4.6-.4.6,0s-.4.4-.8.4-.6.2-.6.4-.4.4-.8.4-.8.6-.8.8,0,.4-.2.4-.2.8-.2,1.6,0,1.4.4,1.4,1.4,1.4,1.4,1.9a3.23,3.23,0,0,1-.6,1.8c-.4,1-.4,1.4-.2,1.8s.2.8-.4,1.2a6,6,0,0,0-.8,4.7c.2,1.8.8,2.5,1.6,2.5.6,0,.8-.2,1.2-1a5.3,5.3,0,0,1,.6-1s.2-.2,0-.2,0-.4.2-.4a.43.43,0,0,0,.4-.4c0-.4,1-1.2,2.1-1.6l1.2-.6a2.54,2.54,0,0,1,1.2-.2,5.94,5.94,0,0,0,3.3-3.3c0-.4-.2-.6-.4-1-.4-.2-.2-.4.6-1.2a3.62,3.62,0,0,0,1.2-2.7,8.65,8.65,0,0,1,.6-2.3,1.42,1.42,0,0,0,.2-.6.73.73,0,0,1,.2-.6c.2-.2.4-.4.4-.6a.43.43,0,0,1,.4-.4c.4-.2.6-.4.6-.8a.91.91,0,0,0-.2-1.1c-.1,0-.1-.1-.2-.1s-.4-.2-.6-.2-.4,0-.4-.2.4-.2,1,0a4.14,4.14,0,0,0,1.6.2c.4,0,.8,0,.8.2s.4.4,1,.4a19.1,19.1,0,0,1,4.7,1.2,1.78,1.78,0,0,0,1,.4.73.73,0,0,1,.6.2,1.42,1.42,0,0,0,.6.2c.2,0,.4,0,.4.2s.4.4,1,.6c.4,0,.8.4,1.2.6a.43.43,0,0,0,.4.4,2.75,2.75,0,0,1,1.6,1,2,2,0,0,0,.8.4c.6.2.6.2.6,1.4a3.4,3.4,0,0,0,.2,1.4c.2,0,.2.4.2.8,0,.8.8,1.4,1.9,1.6s1,.4,0,.6a8.34,8.34,0,0,0-1.2.8,2.14,2.14,0,0,1-2.5.4,2.07,2.07,0,0,1-1-.6l-.8-.4a2.85,2.85,0,0,1-1.4-.8c-.6-.8-.8-.8-2.3,0s-2.7,1.8-2.7,2.3a.91.91,0,0,1-.4.8,1.78,1.78,0,0,0-.4,1,3,3,0,0,1-1.4,2.5c-.4.2-.6.4-1,.6-.4.4-.4,1.9,0,1.9s.4.4.6.6.4.6.8.6c.8-.2,1.2,0,1.2.8,0,.4.2.8.6.8.8.2,1.6,0,1.6-.4s.2-.6.6-1c.6-.6.6-2.1.2-2.1s-.4-1.4,0-1.9c.2-.4.2-.8.4-1.2a2.09,2.09,0,0,1,.4-.6,1.2,1.2,0,0,1-.2.8,5.54,5.54,0,0,0-.2,1.8c0,1,0,1,1,1.2.6.2,1,.4,1,.6a.43.43,0,0,1-.4.4c-.4,0-1.2,1-1,1.2s0,.2,0,.2a2,2,0,0,0-.4.8c-.2.8-.8,1-2.9,1a2.51,2.51,0,0,0-2.3,1,4,4,0,0,1-1.2,1,2.09,2.09,0,0,1-.4-.6c-.2-.4-.2-.6-.4-.6s-.2,0,0-.2,0-.2-.2-.4a1.23,1.23,0,0,1-.4-.8,2,2,0,0,0-.6-1.4l-.6-.6-.6.8c-.8,1-.8,1,0,1.9.4.4.6.8.4.8s-.2.2-.2.4,0,.4-.2.4-.2.6-.2,1.2c0,1,0,1.2.4,1.2a4.64,4.64,0,0,0,2.3-1.2c.2-.2.2-.2.2.2s-.4.6-.8.6a.76.76,0,0,0-.8.6c0,.2-.2.2-.4.2s-.4.2-.4.6a1.42,1.42,0,0,0,.2.6.52.52,0,0,1,.2.4c0,.2,0,.4.2.4s.2.2,0,.4c.4.4,0,.4-.2.4-.8,0-1.6.6-1.6,1a.22.22,0,0,1-.2.2h0c-.2,0-.2.2,0,.2s0,.2,0,.2a3,3,0,0,0-.2,1c0,.6,0,1.2.6,1.4s1,1.6.4,1.6c-.2,0-.2.2-.2.4,0,.4-.2.6-.6.8a5.55,5.55,0,0,0-.6.8,3.32,3.32,0,0,1-1,1.4c-1.2,1.2-2.5,3.7-1.9,4.1a3.8,3.8,0,0,1,.2,2.1c0,1.4,0,1.9.4,2.3s.4.6.4.6a.22.22,0,0,0,.2.2h0c.6.5,1.2,1,1.8,1.6l1.6,1.4h1.8a8.52,8.52,0,0,0,2.3-.4.91.91,0,0,1,1,0,3.26,3.26,0,0,0,1.4.4c.8.2,1,.4,1,.8s-.2.6-.4.6-.2,1,.2,1.4a1.23,1.23,0,0,1,.4.8.73.73,0,0,0,.2.6,1.42,1.42,0,0,1,.2.6.91.91,0,0,0,.4.8c.4.4.6,1.6.2,3.3a10.35,10.35,0,0,0,.8,4.9l.6,1.2a2.54,2.54,0,0,1,.2,1.2,4.71,4.71,0,0,0,.4,1.6,2,2,0,0,0,1.2,1,6.23,6.23,0,0,0,5.1-3.3c.2-.3.4-.5.6-.8a.52.52,0,0,0,.2-.4.73.73,0,0,1,.2-.6,1.42,1.42,0,0,0,.2-.6,3.46,3.46,0,0,1,.8-1.6,6.38,6.38,0,0,0,.8-1.4c0-.2,0-.2.2-.2h0c.6,0,1-1.6,1-3.1a3.33,3.33,0,0,1,.6-2.7,8.34,8.34,0,0,1,.8-1.2,2.07,2.07,0,0,0,.6-1,3.92,3.92,0,0,1,.8-1.4c.2-.2.4-.4.4-.6a1.56,1.56,0,0,1,.6-.8,1.7,1.7,0,0,0,.6-1c0-.2.2-.2.2-.4.2,0,.2-.6.2-1.2,0-1.2-.4-1.6-1-1.2a1.64,1.64,0,0,1-1,.2,2.35,2.35,0,0,0-.8.2.52.52,0,0,1-.4.2c-.2,0-.4,0,0-.6a8.79,8.79,0,0,1,1-.6c.4,0,.6-.2,1-.4a6.38,6.38,0,0,1,1.4-.8,18.82,18.82,0,0,0,2.3-1.6c1.9-1.9,1.6-2.7-1.9-3.9-.8-.2-2.3-1.2-1.8-1.2a3,3,0,0,1,1.8.8c0,.2.6.2,1.4.2,3.5,0,6.6,1.8,7.2,3.9a20.2,20.2,0,0,1-.8,6c-.7-.5-.9-.3-1.1-.1Zm-66.1,20c-.8-.7-1.6-1.4-2.3-2.1-2.5-2.5-2.7-2.9-2.7-3.1a.76.76,0,0,0-.2-.4c-1.4-1.6-1.6-1.8-1.6-2.3s-.2-.6-.4-.6a2,2,0,0,1-.8-1c-.4-.6-.8-1.6-1.2-2.1a4.42,4.42,0,0,1-.6-1.6c0-.2,0-.4-.2-.4a4.81,4.81,0,0,1-.8-1.6,6.39,6.39,0,0,0-.8-1.9,9.77,9.77,0,0,1-.6-2.3,15.67,15.67,0,0,0-.8-3.1,14.46,14.46,0,0,1-.4-2.9c0-1.6,0-1.8.4-1.9.2,0,.4-.2.6-.4,0-.4,1,1.8,1,2.1,0,.8,2.7,2.3,3.9,2.3a.91.91,0,0,1,.8.4,1.78,1.78,0,0,0,1,.4c1.2,0,2.1.6,3.5,1.9a3.59,3.59,0,0,0,1.4,1q.6.3.6.6c0,.2,1,.2,1.2,0s1.2.8,1.2,1.4c0,.2-.2.6-.4.6-1,.6-1,3.9.2,5.3a8.79,8.79,0,0,1,.6,1,16,16,0,0,0,2.7,2.5c.2,0,.4.2.6.4a8.79,8.79,0,0,0,1,.6,2,2,0,0,1,.8.8,2.09,2.09,0,0,0,.4.6.3.3,0,0,1,0,.4h0a1.2,1.2,0,0,0,.2.8,3.53,3.53,0,0,1,.6,1.9,4.85,4.85,0,0,0,.8,2.1,2.79,2.79,0,0,1,.6,1.8,3.08,3.08,0,0,0,.6,1.9,2.27,2.27,0,0,1,.6,1.6,1.43,1.43,0,0,0,.6,1.2,6.38,6.38,0,0,1,.8,1.4c.2.6,0,.6-.4.6a6.6,6.6,0,0,1-2.7-1.2c-.2-.2-.4-.4-.6-.4a25.12,25.12,0,0,1-7.4-4.7,1.1,1.1,0,0,0-1-.6s-.2,0,0-.2-.5-.6-.8-.8Zm10.1-43h1.2c0,.2-.2.4-.4.6-.4.8-1,.8-1.8-.4-.2-.2,0-.2,1-.2Zm43.1,17.5a1.42,1.42,0,0,1,.2.6c0,.6-.4.4-1-.6a2.07,2.07,0,0,0-.6-1,.52.52,0,0,1-.2-.4.73.73,0,0,0-.2-.6,1.42,1.42,0,0,1-.2-.6c0-.2-.2-.4-.4-.6a2.34,2.34,0,0,1-.8-1.8c0-.2.4.4.8,1s.8,1.2,1,1.2.2.2,0,.4a.91.91,0,0,0,.4.8l.6.6c0,.2,0,.4.2.4s.2.2,0,.4c.1-.2.2,0,.2.2Zm-10.3-7.8c0,.6-.4.8-.6.2-.2-.2-.4-.4-.6-.4-.6,0-1.9-1-1.4-1,.2,0,.2-.2.2-.4s0-.4.2-.2,1.8-.4,1.8-1,.6-.8,1.2-.2a1.84,1.84,0,0,0,1.8.8c1,0,1-.8.4-1.2s-.4-.4.2,0c.4.2.8.2,1,.4.2,0,.4.4.4.4s1.6.8,2.1.6.6,0-.2,1l-.6.8-1.8-.2c-1,0-2.1-.2-2.9-.2-1.2,0-1.2,0-1.2.6Zm-5.2-2.9c-1.4,0-1.9,0-2.1.4-.2.2-.4.4-.6.4s-.2,0,0-.2a7.1,7.1,0,0,0,1-1.4c.6-1,.6-1.2,1.9-1.2s2.9.4,2.9,1-1.4,1-3.1,1Z" transform="translate(-252.1 -68.9)"/><path id="Path_141" data-name="Path 141" class="cls-8" d="M1134.2,876.8a.73.73,0,0,1-.6-.2c-.8-.4-1.8-.8-2.5-1.2a1.4,1.4,0,0,1-.8-1.8v-.1a1.4,1.4,0,0,1,1.8-.8h.1c1,.4,1.8.8,2.7,1.2a1.67,1.67,0,0,1,.8,1.9A1.75,1.75,0,0,1,1134.2,876.8Z" transform="translate(-252.1 -68.9)"/><path id="Path_142" data-name="Path 142" class="cls-8" d="M1077.2,983a1.2,1.2,0,0,1-.8-.2,50.41,50.41,0,0,1-4.9-3.1,1.39,1.39,0,1,1,1.4-2.4.1.1,0,0,1,.1.1,28.28,28.28,0,0,0,4.7,2.9,1.35,1.35,0,0,1,.6,1.9v.1A.92.92,0,0,1,1077.2,983Zm-9.2-6.6c-.4,0-.6-.2-1-.4-1.6-1.4-2.9-2.7-4.3-4.1a1.48,1.48,0,1,1,2.1-2.1c1.4,1.4,2.5,2.5,4.1,3.9a1.82,1.82,0,0,1,.2,2.1A1.15,1.15,0,0,1,1068,976.4Zm-7.9-8.1a1.43,1.43,0,0,1-1.2-.6c-1.2-1.6-2.3-3.1-3.3-4.7a1.37,1.37,0,1,1,2.3-1.5,37.18,37.18,0,0,0,3.3,4.5,1.55,1.55,0,0,1-.2,2.1c-.4,0-.6.2-.9.2Zm-6.1-9.6a1.6,1.6,0,0,1-1.4-.8,42.23,42.23,0,0,1-2.5-5.3,1.47,1.47,0,0,1,.7-1.9h.1a1.47,1.47,0,0,1,1.9.7v.1c.8,1.8,1.6,3.5,2.3,5.1a1.46,1.46,0,0,1-.6,1.9C1054.4,958.5,1054.2,958.7,1054,958.7Zm-4.3-10.7a1.5,1.5,0,0,1-1.4-1,57.28,57.28,0,0,1-1.4-5.6,1.53,1.53,0,1,1,3-.6,47.47,47.47,0,0,0,1.4,5.4,1.39,1.39,0,0,1-.9,1.7h-.1Zm-2.3-11.1a1.49,1.49,0,0,1-1.4-1.3v-.1a56.5,56.5,0,0,1-.4-5.8,1.62,1.62,0,0,1,1.4-1.6h0c1,.2,1.6.8,1.6,1.6,0,1.9.2,3.7.2,5.6a1.2,1.2,0,0,1-1,1.5C1047.7,936.9,1047.5,937,1047.4,936.9Zm0-11.2h0a1.32,1.32,0,0,1-1.4-1.2v-.4a57.71,57.71,0,0,1,.8-5.8,1.53,1.53,0,1,1,3,.6,50.25,50.25,0,0,0-.8,5.4,1.81,1.81,0,0,1-1.6,1.4Zm2.2-11.3h-.4a1.45,1.45,0,0,1-1-1.7v-.1c.2-.8.4-1.4.6-2.1l1.2-3.5a1.4,1.4,0,0,1,1.8-.8h.1a1.4,1.4,0,0,1,.8,1.8v.1c-.4,1.2-.8,2.1-1.2,3.3-.2.6-.4,1.4-.6,1.9A1.36,1.36,0,0,1,1049.6,914.4Zm4-10.5a.73.73,0,0,1-.6-.2,1.36,1.36,0,0,1-.7-1.8c0-.1.1-.1.1-.2a32,32,0,0,1,2.9-5.1,1.2,1.2,0,0,1,1.6-.6c.1.1.2.1.3.2a1.2,1.2,0,0,1,.6,1.6c-.1.1-.1.2-.2.3a46.74,46.74,0,0,0-2.7,4.9A1.29,1.29,0,0,1,1053.6,903.9Zm6.1-9.7c-.4,0-.6-.2-1-.4a1.66,1.66,0,0,1-.2-1.9c1.2-1.6,2.5-3.1,3.7-4.5a1.48,1.48,0,0,1,2.1,2.1,36.47,36.47,0,0,0-3.5,4.3,2.1,2.1,0,0,1-1.1.4Zm7.7-8.4a1.43,1.43,0,0,1-1.2-.6,1.55,1.55,0,0,1,.2-2.1,40.24,40.24,0,0,1,4.5-3.7,1.43,1.43,0,1,1,1.7,2.3.1.1,0,0,0-.1.1c-1.6,1.2-2.9,2.3-4.3,3.5,0,.5-.4.5-.8.5Zm9.4-6.6a1.16,1.16,0,0,1-1.2-.8,1.42,1.42,0,0,1,.4-1.9c.1,0,.1-.1.2-.1,1.8-1,3.3-1.9,5.1-2.7a1.47,1.47,0,0,1,1.9.7v.1a1.47,1.47,0,0,1-.7,1.9h-.1c-1.8.8-3.3,1.8-4.9,2.5-.3.1-.5.3-.7.3Zm10.1-4.9a1.5,1.5,0,0,1-1.4-1,1.67,1.67,0,0,1,.8-1.9c1.8-.6,3.7-1.2,5.6-1.8a1.39,1.39,0,0,1,1.7.9v.1a1.39,1.39,0,0,1-.9,1.7h-.1a35.62,35.62,0,0,0-5.3,1.6C1087.3,874.3,1087.1,874.3,1086.9,874.3Zm39.3-.6h-.4c-1.8-.6-3.5-1-5.4-1.6a1.53,1.53,0,1,1,.6-3c1.9.4,3.7,1,5.6,1.6a1.51,1.51,0,0,1,1,1.8A1.72,1.72,0,0,1,1126.2,873.7Zm-28.2-2.3a1.4,1.4,0,0,1-1.4-1.2,1.65,1.65,0,0,1,1.2-1.8,28.56,28.56,0,0,1,5.8-.6,1.5,1.5,0,0,1,.2,3c-1.8.2-3.7.4-5.4.6Zm17.1-.2h0c-1.9-.2-3.9-.4-5.6-.4a1.5,1.5,0,0,1,.2-3,56.5,56.5,0,0,1,5.8.4c.8.2,1.4.8,1.2,1.6A1.92,1.92,0,0,1,1115.1,871.2Z" transform="translate(-252.1 -68.9)"/><path id="Path_143" data-name="Path 143" class="cls-8" d="M1086.9,987.7h-.6q-1.5-.6-2.7-1.2a1.49,1.49,0,1,1,1-2.8.1.1,0,0,1,.1.1,14.76,14.76,0,0,0,2.7,1,1.39,1.39,0,0,1,.9,1.7c0,.1-.1.1-.1.2A1.3,1.3,0,0,1,1086.9,987.7Z" transform="translate(-252.1 -68.9)"/><g id="flights"><path id="Path_144" data-name="Path 144" class="cls-8" d="M1153.2,893.42a2,2,0,0,0,0-2.5l-4.5-4.5,2.5-10.5-1.6-1.6-4.5,8.6-4.5-4.5.4-2.9-1.2-1.2-1.9,3.7-3.7,1.9,1.2,1.4,2.9-.4,4.5,4.5-8.8,4.3,1.6,1.6,10.5-2.3,4.5,4.5a1.61,1.61,0,0,0,2.3.2Z" transform="translate(-252.1 -68.9)"/></g></g></g><g id="Bime"><g id="Bime-2" data-name="Bime"><path id="Path_47" data-name="Path 47" class="cls-8" d="M1255.2,951l-20.6-21.2a18.68,18.68,0,0,0-4.9,9.3,2.45,2.45,0,0,1-1.8,2.1,2.77,2.77,0,0,1-.9.1,2.5,2.5,0,0,1-1.8-.8c-15.1-15-11.6-30.9-11.1-32.8l-3.1-3.3a2.27,2.27,0,0,1,3.3-3.1l3.9,4.1h2.9c7.4,0,20.9,1.5,28.1,11.7a2.7,2.7,0,0,1,.4,2.3,2.48,2.48,0,0,1-1.6,1.7,36.26,36.26,0,0,0-10.2,5.6l20.6,21.1m-36-1.4a2.62,2.62,0,0,0,2-3.1,2.85,2.85,0,0,0-.8-1.4l-.2-.2c-2.9-2.5-9.7-9.9-11.1-23.7a2.55,2.55,0,0,0-2.2-2.3,2.69,2.69,0,0,0-2.8,1.4c-.4.9-10.9,22.7,3.9,37.3a2.69,2.69,0,0,0,1.8.8,2.92,2.92,0,0,0,.9-.2,2.73,2.73,0,0,0,1.7-2.3c.2-.5.7-5,6.8-6.3Zm3.8-42.2c14.2,1.4,19.4,6.7,22.8,10.2l1.2,1.2a2.41,2.41,0,0,0,1.8.7,2.2,2.2,0,0,0,.8-.1,2.79,2.79,0,0,0,1.8-2c1-5,6.6-6.6,6.8-6.7a2.71,2.71,0,0,0,1.9-3.2,2.4,2.4,0,0,0-.7-1.2,26.37,26.37,0,0,0-19.7-7.8,44.65,44.65,0,0,0-17.6,3.9,2.63,2.63,0,0,0-1.2,3.5,2.74,2.74,0,0,0,2.1,1.5Z" transform="translate(-252.1 -68.9)"/><path id="Path_48" data-name="Path 48" class="cls-9" d="M1260.7,994.3h-.4a3.12,3.12,0,0,1-2.9-2.9V970.5a2.72,2.72,0,0,1,2.6-2.6h5.3a8.39,8.39,0,0,1-3.5-6.8,8.78,8.78,0,0,1,4.9-7.9h-7.2a11.33,11.33,0,0,0,3.4-15.7,11.47,11.47,0,0,0-9.5-5.2h-.8a11.3,11.3,0,0,0-5.3,20.8h-8.4c-1.5.3-3.4,1.6-3.4,3.3v28.2a4.38,4.38,0,0,0,4.1,3.8h.1a3.5,3.5,0,0,0,3.2-2.9v24.4a5.42,5.42,0,0,0,5.5,5.2h0a5.09,5.09,0,0,1,10.1,0h.2a5.22,5.22,0,0,0,3.9-1.7V992.9A2,2,0,0,1,1260.7,994.3Z" transform="translate(-252.1 -68.9)"/><path id="Path_49" data-name="Path 49" class="cls-9" d="M1280.9,934.5a11.24,11.24,0,0,0-2.5,15.8,10.73,10.73,0,0,0,3.1,2.9h-7.2a8.65,8.65,0,0,1,4.8,7.8,8.34,8.34,0,0,1-3.6,6.8h5.6a2.64,2.64,0,0,1,2.4,2.7v21.3a2.75,2.75,0,0,1-2.4,2.9h-.1a3.9,3.9,0,0,1-2.6-1.7v20.6a6.32,6.32,0,0,0,3.9,1.5h.2a5.09,5.09,0,0,1,10.1,0h.2a5,5,0,0,0,4.9-5V985.6a4.06,4.06,0,0,0,3.7,2.9h.1a3.83,3.83,0,0,0,3.6-3.8V956.6a3.4,3.4,0,0,0-3.3-3.3h-8a11.38,11.38,0,0,0-5.3-20.9h-.9a10.69,10.69,0,0,0-6.7,2.1Z" transform="translate(-252.1 -68.9)"/></g></g><g id="Sharj"><path id="Path_137" data-name="Path 137" class="cls-8" d="M1584.9,957.7h5a2.09,2.09,0,0,1,2.1,2h0v6.4a3.74,3.74,0,0,1-3.6,3.7h-3.5a2.09,2.09,0,0,1-2.1-2h0v-8a2.18,2.18,0,0,1,2.1-2.1Zm-14.7,0h4.8a2.09,2.09,0,0,1,2.1,2h0v8a2.11,2.11,0,0,1-2.1,2.1h-4.8a2.09,2.09,0,0,1-2.1-2h0v-8a2.18,2.18,0,0,1,2.1-2.1Zm-14.2,0h4.4a2.09,2.09,0,0,1,2.1,2h0v8a2.09,2.09,0,0,1-2,2.1h-6a2.09,2.09,0,0,1-2.1-2h0v-6.4a3.6,3.6,0,0,1,3.6-3.7Zm4.8,40.4H1556a3.74,3.74,0,0,1-3.7-3.6v-.1h0v-3.2a2.09,2.09,0,0,1,2-2.1h6.4a2.09,2.09,0,0,1,2.1,2h0v5a1.94,1.94,0,0,1-2,2Zm14.7,0h-4.8a2.09,2.09,0,0,1-2.1-2h0v-5a2.09,2.09,0,0,1,2-2.1h4.8a2.09,2.09,0,0,1,2.1,2h0v5a2,2,0,0,1-2,2.1Zm14.4,0h-4.6a2.09,2.09,0,0,1-2.1-2h0v-5a2.09,2.09,0,0,1,2-2.1h4.6a2.09,2.09,0,0,1,2.1,2h0v5c.1,1.4-.8,2.3-2,2.1Zm15.1,0h-5.3a2.09,2.09,0,0,1-2.1-2h0v-5a2.09,2.09,0,0,1,2-2.1h6.9a2.09,2.09,0,0,1,2.1,2h0v3.4a3.55,3.55,0,0,1-3.6,3.7Zm1.6-12.6h-52.3a2.09,2.09,0,0,1-2.1-2h0v-8.3a2.09,2.09,0,0,1,2-2.1h33.9c6.6,0,9.4-.9,9.4-7.1v-6.4a2.09,2.09,0,0,1,2-2.1h5.3a3.74,3.74,0,0,1,3.7,3.6v22.3a1.8,1.8,0,0,1-1.9,2.1Z" transform="translate(-252.1 -68.9)"/><path id="Path_138" data-name="Path 138" class="cls-9" d="M1612.4,1015.1h-66.5a12.59,12.59,0,0,1-12.6-12.5V934.2a38.37,38.37,0,0,1,38.3-38.3h40.8a12.59,12.59,0,0,1,12.6,12.5v94.3a12.4,12.4,0,0,1-12.4,12.4ZM1571.6,905a29.06,29.06,0,0,0-29.1,29.1v68.3a3.44,3.44,0,0,0,3.4,3.4h66.7a3.44,3.44,0,0,0,3.4-3.4v-94a3.86,3.86,0,0,0-3.7-3.4Z" transform="translate(-252.1 -68.9)"/></g><g id="Ghobuz"><path id="Path_39" data-name="Path 39" class="cls-9" d="M1456,867.5h-83.4a4.17,4.17,0,0,0-4.1,4h0V958a4,4,0,0,0,1.2,2.9l24.8,24.8a4,4,0,0,0,2.9,1.2H1456a4.12,4.12,0,0,0,4.1-4.1h0V871.5a4.1,4.1,0,0,0-4.1-4ZM1382.3,962h11v10.9Zm69.6,16.7h-50.5V958a4.12,4.12,0,0,0-4.1-4.1h-20.8V875.6h75.4V978.7Z" transform="translate(-252.1 -68.9)"/><path id="Path_40" data-name="Path 40" class="cls-8" d="M1386.5,896.4h34.7a4.1,4.1,0,0,0,.2-8.2h-35a4.1,4.1,0,1,0,.1,8.2Z" transform="translate(-252.1 -68.9)"/><path id="Path_41" data-name="Path 41" class="cls-8" d="M1435.2,896.4h6.9a4.12,4.12,0,0,0,4.1-4.1,4.06,4.06,0,0,0-4.1-4.1h-6.9a4.12,4.12,0,0,0-4.1,4.1A4.06,4.06,0,0,0,1435.2,896.4Z" transform="translate(-252.1 -68.9)"/><path id="Path_42" data-name="Path 42" class="cls-8" d="M1386.5,917.3h34.7a4,4,0,0,0,.6-8h-35.3a4,4,0,0,0-3.7,4.3A4,4,0,0,0,1386.5,917.3Z" transform="translate(-252.1 -68.9)"/><path id="Path_43" data-name="Path 43" class="cls-8" d="M1435.2,917.3h6.9a4,4,0,1,0,.6-8h-7.5a4,4,0,1,0-.6,8Z" transform="translate(-252.1 -68.9)"/><path id="Path_44" data-name="Path 44" class="cls-8" d="M1386.5,938.2h34.7a4.1,4.1,0,0,0,0-8.2h-34.7a4.1,4.1,0,1,0,0,8.2Z" transform="translate(-252.1 -68.9)"/><path id="Path_45" data-name="Path 45" class="cls-8" d="M1435.2,938.2h6.9a4.1,4.1,0,1,0,0-8.2h-6.9a4.1,4.1,0,0,0,0,8.2Z" transform="translate(-252.1 -68.9)"/><path id="Path_46" data-name="Path 46" class="cls-8" d="M1428.2,959h13.9a4.12,4.12,0,0,0,4.1-4.1,4.06,4.06,0,0,0-4.1-4.1h-13.9a4.1,4.1,0,0,0,0,8.2Z" transform="translate(-252.1 -68.9)"/></g><g id="Avaye_Vira" data-name="Avaye Vira"><path id="Path_151" data-name="Path 151" class="cls-7" d="M741.6,918.7c-1.9-22.1,7.7-34.9,16.3-41.5A47.6,47.6,0,0,1,784.2,867v89.9a32.64,32.64,0,0,1-11.6-2.1l-.2-73.6a56.32,56.32,0,0,0-8.1,4.9c-9.3,7.5-13.1,18.4-11.7,32.6Z" transform="translate(-252.1 -68.9)"/><path id="Path_152" data-name="Path 152" class="cls-8" d="M787.3,956.4V889.1l15.2,14.2-5.8,6.1-1.1-1.1V937l15.2-14.4-2.5-2.3,5.8-6.1,8.9,8.4Z" transform="translate(-252.1 -68.9)"/><path id="Path_153" data-name="Path 153" class="cls-8" d="M825.9,912.9l-4.2-1.8a13.93,13.93,0,0,0-7.2-18.4,13.76,13.76,0,0,0-5.6-1.2h0a12.91,12.91,0,0,0-7.2,2.1l-2.5-3.9a18.19,18.19,0,0,1,9.6-2.8h0a17.31,17.31,0,0,1,7.4,1.6,18.48,18.48,0,0,1,9.7,24.4Z" transform="translate(-252.1 -68.9)"/><path id="Path_154" data-name="Path 154" class="cls-8" d="M842.6,920.5l-4.2-1.9a32.1,32.1,0,0,0-16-42.5,31.56,31.56,0,0,0-5.9-2,33.18,33.18,0,0,0-24.4,3.9l-2.5-3.9a36.88,36.88,0,0,1,27.9-4.4,37,37,0,0,1,25.1,50.8Z" transform="translate(-252.1 -68.9)"/><path id="Path_155" data-name="Path 155" class="cls-8" d="M834.1,916.8l-4.2-1.9a23.3,23.3,0,0,0-11.7-30.5,22.61,22.61,0,0,0-21.4,1.4l-2.5-3.9a27.65,27.65,0,0,1,25.6-1.8,26.5,26.5,0,0,1,14.5,15.4A25.94,25.94,0,0,1,834.1,916.8Z" transform="translate(-252.1 -68.9)"/><path id="Path_156" data-name="Path 156" class="cls-7" d="M740.9,892.6H727.2a1.37,1.37,0,0,1-1.4-1.4h0a1.43,1.43,0,0,1,1.4-1.4h13.7a1.4,1.4,0,0,1,0,2.8Z" transform="translate(-252.1 -68.9)"/><path id="Path_157" data-name="Path 157" class="cls-7" d="M737.2,902.9H715.6a1.37,1.37,0,0,1-1.4-1.4h0a1.43,1.43,0,0,1,1.4-1.4h21.6a1.4,1.4,0,0,1,0,2.8Z" transform="translate(-252.1 -68.9)"/><path id="Path_158" data-name="Path 158" class="cls-7" d="M736.5,913.5H704.1a1.37,1.37,0,0,1-1.4-1.4h0a1.43,1.43,0,0,1,1.4-1.4h32.2a1.37,1.37,0,0,1,1.4,1.4h0A1.32,1.32,0,0,1,736.5,913.5Z" transform="translate(-252.1 -68.9)"/><path id="Path_159" data-name="Path 159" class="cls-7" d="M767.2,924H716.5a1.37,1.37,0,0,1-1.4-1.4h0a1.43,1.43,0,0,1,1.4-1.4h50.7a1.37,1.37,0,0,1,1.4,1.4h0A1.7,1.7,0,0,1,767.2,924Z" transform="translate(-252.1 -68.9)"/><path id="Path_160" data-name="Path 160" class="cls-7" d="M767.2,934.3H726.5a1.37,1.37,0,0,1-1.4-1.4h0a1.43,1.43,0,0,1,1.4-1.4h40.7a1.37,1.37,0,0,1,1.4,1.4h0A1.5,1.5,0,0,1,767.2,934.3Z" transform="translate(-252.1 -68.9)"/><path id="Path_161" data-name="Path 161" class="cls-7" d="M767.2,944.7H738.3a1.37,1.37,0,0,1-1.4-1.4h0a1.43,1.43,0,0,1,1.4-1.4h28.9a1.37,1.37,0,0,1,1.4,1.4h0A1.7,1.7,0,0,1,767.2,944.7Z" transform="translate(-252.1 -68.9)"/></g><g id="Bashgah"><path id="Path_162" data-name="Path 162" class="cls-9" d="M637.7,1014.3l-63-63,7.3-36.7,36.7-7.3,63,63Zm-55.6-65.2,55.5,55.5,34.1-34.3-55.4-55.5-28.5,5.7Z" transform="translate(-252.1 -68.9)"/><circle id="Ellipse_8" data-name="Ellipse 8" class="cls-8" cx="349.2" cy="863.2" r="5"/><rect id="Rectangle_36" data-name="Rectangle 36" class="cls-8" x="616.17" y="968.47" width="41.5" height="4.2" transform="translate(-771.71 1002.17) rotate(-61.69)"/><path id="Path_163" data-name="Path 163" class="cls-8" d="M632.1,961.7a5.9,5.9,0,1,1,5.9-5.9h0a5.85,5.85,0,0,1-5.9,5.9Zm0-8.3a2.4,2.4,0,1,0,2.4,2.4,2.35,2.35,0,0,0-2.3-2.4Z" transform="translate(-252.1 -68.9)"/><path id="Path_164" data-name="Path 164" class="cls-8" d="M643.4,989.9a5.9,5.9,0,1,1,5.9-5.9h0a5.85,5.85,0,0,1-5.9,5.9Zm0-8.5a2.4,2.4,0,1,0,2.4,2.4,2.5,2.5,0,0,0-2.4-2.4Z" transform="translate(-252.1 -68.9)"/></g><g id="Vebinar"><path id="Path_165" data-name="Path 165" class="cls-9" d="M521.4,973.2H420a4.1,4.1,0,0,1,0-8.2H521.3a4.12,4.12,0,0,1,4.1,4.1A4,4,0,0,1,521.4,973.2Z" transform="translate(-252.1 -68.9)"/><path id="Path_166" data-name="Path 166" class="cls-8" d="M445.8,944.2H496c4.7,0-4.1-20.5-4.1-20.5a4.73,4.73,0,0,0-2.8-2.4l-7.9-3.6-3.9-3.2-6.1,6.1h0l2.6,17.6v.2l-2.8,3.9h-.4l-2.8-3.9v-.2l2.6-17.6h0l-6.1-6.1-3.9,3-7.9,3.6a5.52,5.52,0,0,0-2.8,2.4C449.6,923.7,441.1,944.2,445.8,944.2Z" transform="translate(-252.1 -68.9)"/><path id="Path_167" data-name="Path 167" class="cls-8" d="M470.9,915.8c6.1,0,14.2-7.5,14.4-20.3,0-8.7-4.1-14-14.4-14s-14.4,5.3-14.4,14C456.7,908.3,463.8,915.8,470.9,915.8Zm-2.8-16.6c7.5.8,13.8-9.5,13.8-.4,0,5.5-5.3,14-10.9,14s-10.1-6.9-10.9-14C459.2,891.3,472.9,893.1,468.1,899.2Z" transform="translate(-252.1 -68.9)"/><path id="Path_168" data-name="Path 168" class="cls-9" d="M520.2,867.8H421.7a5.66,5.66,0,0,0-5.7,5.5h0v79a5.7,5.7,0,0,0,5.7,5.7h98.5a5.7,5.7,0,0,0,5.7-5.7h0v-79A5.79,5.79,0,0,0,520.2,867.8Zm-2.9,81.9h-93V876.1h93Z" transform="translate(-252.1 -68.9)"/></g><g id="Forooshgah_Saz" data-name="Forooshgah Saz"><g id="Group_4" data-name="Group 4"><g id="Group_3" data-name="Group 3"><path id="Path_126" data-name="Path 126" class="cls-9" d="M361.3,944.15H259.6a7.55,7.55,0,0,0-7.5,7.5h0V960a7.55,7.55,0,0,0,7.5,7.5h2.3l7.2,39.2c.9,4.6,5.1,8.3,9.5,8.3h62c4.4,0,8.6-3.7,9.5-8.3l7.3-39.2h3.8a7.55,7.55,0,0,0,7.5-7.5h0v-8.3A7.28,7.28,0,0,0,361.3,944.15Zm-75.9,39.2v16.9a4.2,4.2,0,0,1-8.4,0v-23.7a4.2,4.2,0,0,1,8.4,0Zm19.1,0v16.9a4.2,4.2,0,1,1-8.4,0v-23.7a4.23,4.23,0,0,1,4.2-4.2h0a4.23,4.23,0,0,1,4.2,4.2Zm19.1,9.8v7.1a4.2,4.2,0,0,1-8.4,0v-23.7a4.2,4.2,0,0,1,8.4,0h0Zm18.3,0v7.1a4.2,4.2,0,1,1-8.4,0v-23.7a4.2,4.2,0,0,1,8.4,0Z" transform="translate(-252.1 -68.9)"/></g></g><g id="Group_5" data-name="Group 5"><path id="Path_127" data-name="Path 127" class="cls-8" d="M290.85,938.8l10.9-21.9a5.77,5.77,0,0,0-10.2-5.4.35.35,0,0,1-.1.2l-13.5,27,12.9.1Z" transform="translate(-252.1 -68.9)"/><path id="Path_128" data-name="Path 128" class="cls-8" d="M330.15,938.8H343l-13.5-27a5.75,5.75,0,1,0-10.3,5.1Z" transform="translate(-252.1 -68.9)"/></g></g><g id="Nikoo_kari" data-name="Nikoo kari"><path id="Path_71" data-name="Path 71" class="cls-7" d="M1578.9,174.2a7.51,7.51,0,0,1-5-9.4c0-.1,0-.1.1-.2.4-1.2.9-1.8,15.1-16l14.7-14.8-1.2-1.2-1.1-1.1L1587,146c-9.8,9.8-14.8,14.6-15.5,15a6.28,6.28,0,0,1-3.3.6,5.62,5.62,0,0,1-3.4-.6,8.37,8.37,0,0,1-3.5-3.7,8.05,8.05,0,0,1,0-6.1c.4-.9,3.8-4.4,14.9-15.6,7.9-7.9,14.4-14.5,14.4-14.6a4.71,4.71,0,0,0-1.3-1.5l-1.3-1.3-14.8,14.7c-14.7,14.7-14.7,14.7-16.2,15.1a7.61,7.61,0,0,1-9.1-4,5.57,5.57,0,0,1-.5-2.8c0-3.4-.7-2.5,14.8-18,7.6-7.7,14.1-13.9,14.3-13.9a1,1,0,0,1,.7.4,20.94,20.94,0,0,0,1.7,1.4,12.69,12.69,0,0,0,6.6,2.2,14.11,14.11,0,0,0,12.6-8.7,11.58,11.58,0,0,0,0-9.3c-.6-1.5-1-1.9-8.1-8.9a100,100,0,0,1-7.3-7.8,6.48,6.48,0,0,1,1.6-1.7,34.77,34.77,0,0,1,30.3-6.6,34.51,34.51,0,0,1,25.3,26.2,52.36,52.36,0,0,1,0,13.7,32.86,32.86,0,0,1-3.1,8.8c-2.9,5.9-2.2,5.1-28,30.9-19,18.9-23.6,23.5-24.6,23.9a8.84,8.84,0,0,1-5.3.4Z" transform="translate(-252.1 -68.9)"/><path id="Path_72" data-name="Path 72" class="cls-7" d="M1539.2,135.1a8.59,8.59,0,0,1-4-4.2,9.57,9.57,0,0,1,.1-5.8c.4-.8,3.7-4.3,14.4-15,7.7-7.7,14-13.9,14.1-13.9s10.2,9.9,10.2,10.2-27.8,28-28.7,28.5a10.52,10.52,0,0,1-6.1.2Z" transform="translate(-252.1 -68.9)"/><path id="Path_73" data-name="Path 73" class="cls-8" d="M1529.6,127a39.07,39.07,0,0,1-8.4-16.6,53.15,53.15,0,0,1-.3-12.6,34.83,34.83,0,0,1,17.2-24.4,35.19,35.19,0,0,1,31.9-.9c4.4,2,5.6,3.1,15.5,13.1s10.1,10.1,10.4,13a10.58,10.58,0,0,1-9.2,11.8,12.19,12.19,0,0,1-2.7,0c-3-.5-2.8-.4-16.3-13.8l-12.5-12.5-.9.9-.9.9,4,4a41.77,41.77,0,0,1,4,4.4c0,.2-6.3,6.7-14.1,14.5-15.4,15.5-15,15-15.6,18.4-.2,1.1-.4,1.7-.6,1.7a13.93,13.93,0,0,0-1.5-1.9Z" transform="translate(-252.1 -68.9)"/></g><g id="Token_sine" data-name="Token sine"><path id="Path_129" data-name="Path 129" class="cls-9" d="M1463.6,109.8H1365a6.23,6.23,0,0,0-6.4,6v93a6.23,6.23,0,0,0,6.4,6h98.6a6.23,6.23,0,0,0,6.4-6v-93a6.23,6.23,0,0,0-6.4-6ZM1428.9,121a2.14,2.14,0,0,1,2.2-2.1h6.4a2.14,2.14,0,0,1,2.2,2.1h0v6a2.14,2.14,0,0,1-2.2,2.1h-6.4a2.14,2.14,0,0,1-2.2-2.1h0Zm-17.6,0a2.14,2.14,0,0,1,2.2-2.1h6.4a2.12,2.12,0,0,1,2.2,2h0v6a2.14,2.14,0,0,1-2.2,2.1h-6.4a2.14,2.14,0,0,1-2.2-2.1h0V121Zm46.1,79.2a2.78,2.78,0,0,1-2.8,2.7H1374a2.78,2.78,0,0,1-2.8-2.7V139.1a2.78,2.78,0,0,1,2.8-2.7h80.5a2.78,2.78,0,0,1,2.8,2.7Zm0-73.2a2.14,2.14,0,0,1-2.2,2.1h-6.4a2.14,2.14,0,0,1-2.2-2.1h0v-6a2.14,2.14,0,0,1,2.2-2.1h6.4a2.14,2.14,0,0,1,2.2,2.1h0Z" transform="translate(-252.1 -68.9)"/><path id="Path_130" data-name="Path 130" class="cls-8" d="M1434.4,152.4a19.62,19.62,0,0,0-16.9,9.3h-33.2a3.46,3.46,0,0,0-2,.7l-7.4,6.1a2.84,2.84,0,0,0-.4,4c.1.2.3.3.4.4l7.4,6.1a3.06,3.06,0,0,0,2,.7h2.3a3.66,3.66,0,0,0,3-1.6l2.1-3.1a.71.71,0,0,1,.6-.3.6.6,0,0,1,.6.3l2.1,3.1a3.61,3.61,0,0,0,6,0l2.1-3.1a.71.71,0,0,1,.6-.3.6.6,0,0,1,.6.3l2.1,3.1a3.66,3.66,0,0,0,3,1.6h7.7A19.62,19.62,0,0,0,1434,189c10.7,0,19.4-8.2,19.4-18.3C1453.9,160.6,1445.1,152.4,1434.4,152.4Zm0,25.7a7.46,7.46,0,1,1,7.9-7.4A7.63,7.63,0,0,1,1434.4,178.1Z" transform="translate(-252.1 -68.9)"/></g><g id="Vira_Token" data-name="Vira Token"><path id="Path_74" data-name="Path 74" class="cls-9" d="M1229,123c0-44.6,0-51.6.2-51.6a2.09,2.09,0,0,1,.6.4l1.8,1.6,2.7,2.4c.6.5,1.7,1.6,2.6,2.4l2,1.9,2.1,2c2.3,2.1,3,2.8,3.6,3.3l1.9,1.7,2,1.9,2,1.8a12.55,12.55,0,0,1,1.6,1.5l.4.3-.6.7-1.3,1.5a16.65,16.65,0,0,1-1.2,1.3,2.65,2.65,0,0,0-.5.6,2.65,2.65,0,0,1-.5.6c-.5.5-1.1,1.2-3.2,3.5a8.64,8.64,0,0,1-1.3,1.4c-.1,0-.4,0-.9-.5l-.7-.6V145l1.6-1.5c1.4-1.3,4.4-4.2,5.3-5l1.8-1.7,2.9-2.6a18.48,18.48,0,0,0,1.4-1.4h.1a1.76,1.76,0,0,0,.5-.4l4.2-3.9,1.2-1.1,2-1.9,2-1.8.6-.6-.6-.7c-.9-.9-3.2-3-3.3-3s-.1-.4,0-.6,1.4-1.2,2.8-2.4l3-2.7,2.9-2.7a1.46,1.46,0,0,1,.9-.6,1.79,1.79,0,0,1,.7.5l4,3.7c1.9,1.8,3.6,3.4,3.9,3.6l1.1,1a22.77,22.77,0,0,1,3.8,3.8,5.5,5.5,0,0,1-.7.9l-2.2,2.1c-.9.8-1.8,1.7-2,1.9s-2,1.9-3.9,3.6l-3.8,3.4a12.52,12.52,0,0,1-1.2,1.2c-.5.5-1.3,1.2-1.7,1.6l-4.3,4.1c-.2.2-.8.7-1.2,1.1l-1.6,1.5-1.9,1.7c-.5.5-1.9,1.8-3,2.8l-3.1,2.9-2.3,2.1c-1.8,1.6-2.4,2.4-3.3,3.1l-2.1,1.9-1.9,1.7c-.6.6-1.3,1.2-3.6,3.3l-2.1,2-2,1.9c-.9.8-2.1,1.9-2.6,2.4l-2.7,2.4c-.8.7-1.6,1.4-1.8,1.6a.71.71,0,0,1-.6.3C1229,174.6,1229,167.6,1229,123Z" transform="translate(-252.1 -68.9)"/><path id="Path_75" data-name="Path 75" class="cls-8" d="M1283.4,73.8h-46.8a1.55,1.55,0,0,1-1.3-1.7,1.49,1.49,0,0,1,1.3-1.3h46.8a1.51,1.51,0,1,1,.4,3Z" transform="translate(-252.1 -68.9)"/><path id="Path_76" data-name="Path 76" class="cls-8" d="M1283.4,85.6h-33.2a1.51,1.51,0,1,1-.4-3h33.6a1.51,1.51,0,0,1,.4,3Z" transform="translate(-252.1 -68.9)"/><path id="Path_77" data-name="Path 77" class="cls-8" d="M1283.4,97.3h-24.9a1.5,1.5,0,0,1,0-3h24.9a1.5,1.5,0,0,1,0,3Z" transform="translate(-252.1 -68.9)"/><path id="Path_78" data-name="Path 78" class="cls-8" d="M1283.4,107.9H1246a1.51,1.51,0,1,1-.4-3h37.8a1.51,1.51,0,1,1,.4,3A.3.3,0,0,1,1283.4,107.9Z" transform="translate(-252.1 -68.9)"/><path id="Path_79" data-name="Path 79" class="cls-8" d="M1283.4,140.3h-6.8a1.5,1.5,0,0,1,0-3h6.8a1.5,1.5,0,0,1,0,3Z" transform="translate(-252.1 -68.9)"/><path id="Path_80" data-name="Path 80" class="cls-8" d="M1283.4,151.6h-15.8a1.51,1.51,0,0,1-.4-3h16.2a1.51,1.51,0,0,1,.4,3Z" transform="translate(-252.1 -68.9)"/><path id="Path_81" data-name="Path 81" class="cls-8" d="M1283.4,163.3h-33.2a1.51,1.51,0,1,1-.4-3h33.6a1.51,1.51,0,1,1,.4,3Z" transform="translate(-252.1 -68.9)"/><path id="Path_82" data-name="Path 82" class="cls-8" d="M1283.4,175h-46.8a1.55,1.55,0,0,1-1.3-1.7,1.49,1.49,0,0,1,1.3-1.3h46.8a1.51,1.51,0,0,1,.4,3Z" transform="translate(-252.1 -68.9)"/><path id="Path_83" data-name="Path 83" class="cls-8" d="M1261.5,115.8H1246a1.5,1.5,0,0,1,0-3h15.5a1.5,1.5,0,0,1,0,3Z" transform="translate(-252.1 -68.9)"/><path id="Path_84" data-name="Path 84" class="cls-8" d="M1259.2,124.4H1246a1.51,1.51,0,1,1-.4-3h13.6a1.51,1.51,0,0,1,.4,3Z" transform="translate(-252.1 -68.9)"/><path id="Path_85" data-name="Path 85" class="cls-8" d="M1252.1,133.1h-6a1.5,1.5,0,0,1,0-3h6a1.5,1.5,0,0,1,0,3Z" transform="translate(-252.1 -68.9)"/></g><g id="Kif_Pool" data-name="Kif Pool"><path id="Path_131" data-name="Path 131" class="cls-9" d="M1042.3,217.6h106.3a8,8,0,0,0,8-8v-18h-38.2a21.21,21.21,0,0,1-21.2-21.2h0v-2.2a21.21,21.21,0,0,1,21.2-21.2h38.2V129a8,8,0,0,0-8-8H1042.3a8,8,0,0,0-8,8v80.7A8,8,0,0,0,1042.3,217.6Z" transform="translate(-252.1 -68.9)"/><path id="Path_132" data-name="Path 132" class="cls-8" d="M1165.4,160.9a6,6,0,0,0-6-6h-41a13.34,13.34,0,0,0-13.3,13.2h0v2.2a13.34,13.34,0,0,0,13.2,13.3h41a6,6,0,0,0,6-6h0V160.9Zm-44.8,15.4a7,7,0,1,1,7-7,7,7,0,0,1-7,7Z" transform="translate(-252.1 -68.9)"/></g><g id="Tarakonesh"><path id="Path_86" data-name="Path 86" class="cls-9" d="M992.3,90h-17V77a8.13,8.13,0,0,0-8.1-8.1H896.3a8.07,8.07,0,0,0-8.1,8.1h0v88.7a8.07,8.07,0,0,0,8.1,8.1H986a14.51,14.51,0,0,0,14.5-14.5V98.2A8.37,8.37,0,0,0,992.3,90Zm-96,80a4.23,4.23,0,0,1-4.2-4.2V77.1a4.23,4.23,0,0,1,4.2-4.2h70.9a4.23,4.23,0,0,1,4.2,4.2v82.3A14.6,14.6,0,0,0,976,170Zm100.2-10.6a10.6,10.6,0,0,1-21.2,0V94h17a4.23,4.23,0,0,1,4.2,4.2h0v61.2Z" transform="translate(-252.1 -68.9)"/><path id="Path_87" data-name="Path 87" class="cls-8" d="M924.7,110.1a16.9,16.9,0,0,0,4.4,1.2s.2.1.2.2v2.1a1.11,1.11,0,0,0,1.1,1.1h1a1.11,1.11,0,0,0,1.1-1.1h0v-2.2a.22.22,0,0,1,.2-.2,6.16,6.16,0,0,0,5.2-6c0-3-1.7-5-5.6-6.5-3-1.2-3.9-1.9-3.9-3.2,0-1,.8-2.3,3-2.3a8.53,8.53,0,0,1,3.5.8,1,1,0,0,0,1.4-.4.1.1,0,0,1,.1-.1l.5-1.4a.81.81,0,0,0-.5-1.1,23.69,23.69,0,0,0-3.6-.9.22.22,0,0,1-.2-.2h0v-2a1.11,1.11,0,0,0-1.1-1.1h-1a1.11,1.11,0,0,0-1.1,1.1h0V90a.22.22,0,0,1-.2.2c-3,.7-4.9,2.9-4.9,5.7,0,3.5,2.9,5,5.9,6.2,2.5,1,3.5,2,3.5,3.4,0,1.6-1.4,2.7-3.5,2.7a11.9,11.9,0,0,1-4.1-1.1.9.9,0,0,0-.5-.1,1.2,1.2,0,0,0-1,.7l-.5,1.4C924,109.3,924.3,109.9,924.7,110.1Z" transform="translate(-252.1 -68.9)"/><path id="Path_88" data-name="Path 88" class="cls-8" d="M931,121.8a21.3,21.3,0,1,0-21.3-21.3A21.25,21.25,0,0,0,931,121.8Zm0-38.7a17.4,17.4,0,1,1-17.4,17.4h0A17.41,17.41,0,0,1,931,83.1Z" transform="translate(-252.1 -68.9)"/><rect id="Rectangle_4" data-name="Rectangle 4" class="cls-8" x="651.8" y="59.5" width="14.1" height="3.9"/><rect id="Rectangle_5" data-name="Rectangle 5" class="cls-8" x="669.2" y="59.5" width="7.2" height="3.9"/><rect id="Rectangle_6" data-name="Rectangle 6" class="cls-8" x="677.5" y="70" width="9.4" height="3.9"/><rect id="Rectangle_7" data-name="Rectangle 7" class="cls-8" x="679.7" y="59.7" width="14.1" height="3.9"/><rect id="Rectangle_8" data-name="Rectangle 8" class="cls-8" x="697.1" y="59.7" width="10.7" height="3.9"/><rect id="Rectangle_9" data-name="Rectangle 9" class="cls-8" x="651.8" y="80.4" width="4.8" height="3.9"/><rect id="Rectangle_10" data-name="Rectangle 10" class="cls-8" x="658.8" y="80.4" width="16.8" height="3.9"/><rect id="Rectangle_11" data-name="Rectangle 11" class="cls-8" x="679.5" y="80.5" width="3.9" height="3.9"/><rect id="Rectangle_12" data-name="Rectangle 12" class="cls-8" x="686.3" y="80.5" width="21.6" height="3.9"/><rect id="Rectangle_13" data-name="Rectangle 13" class="cls-8" x="651.8" y="90.8" width="13.9" height="3.9"/><rect id="Rectangle_14" data-name="Rectangle 14" class="cls-8" x="669.5" y="90.8" width="14.2" height="3.9"/><rect id="Rectangle_15" data-name="Rectangle 15" class="cls-8" x="686.9" y="90.9" width="3.9" height="3.9"/><rect id="Rectangle_16" data-name="Rectangle 16" class="cls-8" x="693.7" y="90.9" width="14.2" height="3.9"/><rect id="Rectangle_17" data-name="Rectangle 17" class="cls-8" x="651.8" y="69.9" width="21.1" height="3.9"/><rect id="Rectangle_18" data-name="Rectangle 18" class="cls-8" x="690.2" y="70" width="17.7" height="3.9"/></g><g id="Tasvie"><path id="Path_117" data-name="Path 117" class="cls-8" d="M783.1,150.5a21.33,21.33,0,0,0,5.1,1.4c.1,0,.2.1.2.3v2.4a1.32,1.32,0,0,0,1.3,1.3h1.2a1.32,1.32,0,0,0,1.3-1.3V152c0-.1.1-.2.2-.3h0c3.7-.8,6-3.5,6-6.9s-1.9-5.7-6.5-7.5c-3.4-1.4-4.4-2.2-4.4-3.7,0-1.2.9-2.6,3.5-2.6a9,9,0,0,1,4,.9c.2.1.4.1.6.2a1.17,1.17,0,0,0,1.1-.8l.6-1.6a1,1,0,0,0-.5-1.3,32.51,32.51,0,0,0-4.2-1.1.22.22,0,0,1-.2-.2h0v-2.3a1.32,1.32,0,0,0-1.3-1.3H790a1.32,1.32,0,0,0-1.3,1.3v2.4a.32.32,0,0,1-.3.3,6.7,6.7,0,0,0-5.6,6.6c0,4,3.3,5.8,6.9,7.2,2.8,1.1,4,2.3,4,3.9,0,1.8-1.7,3.1-4,3.1a13.73,13.73,0,0,1-4.8-1.3,1.19,1.19,0,0,0-1.6.7l-.6,1.6c-.3.4-.1.9.4,1.2Z" transform="translate(-252.1 -68.9)"/><path id="Path_118" data-name="Path 118" class="cls-8" d="M790.5,166a26,26,0,1,0-26-25.9A25.93,25.93,0,0,0,790.5,166Zm0-48.4A22.5,22.5,0,1,1,768,140.1h0a22.41,22.41,0,0,1,22.5-22.5Z" transform="translate(-252.1 -68.9)"/><path id="Path_119" data-name="Path 119" class="cls-9" d="M836.1,172.7a6.32,6.32,0,0,0-8.5-2.2l-14.4,8.3a10.62,10.62,0,0,0,.4-1.9c0-.2.1-.3.1-.5a1.77,1.77,0,0,0-1.5-1.9H787.9a7.64,7.64,0,0,1-3.3-.8c-11.1-5.9-19.9-3.2-25.4.1a31.45,31.45,0,0,0-7.8,6.7l-2.7-3.4-13,10.3,2,2.6-4,2.5V217h20.8l2.8-2.2,2.5,3.1,13-10.3-2.1-2.7,4.8-2.7a5.14,5.14,0,0,1,2.5-.6h18.5a8.66,8.66,0,0,0,4.5-1.2l33-18.8a6.36,6.36,0,0,0,2.3-8.7h0c-.1-.2-.2-.2-.2-.2Zm-82.8,40.7H737.1V194.2l2.6-1.7-.3-.5,15.7,19.9Zm7-.4-19.8-25.1,7.6-6L767.9,207Zm73.2-36.3a3,3,0,0,1-1.3,1.8l-32.9,18.8a5.55,5.55,0,0,1-2.8.7H778a8.77,8.77,0,0,0-4.2,1.1l-5.3,3-14.9-18.9a27.86,27.86,0,0,1,7.5-6.6c6.8-4.1,14.2-4,21.9.1a10.44,10.44,0,0,0,4.9,1.2h22A10.46,10.46,0,0,1,800,185H784.1a9.49,9.49,0,0,0-5.4,1.6l-1.8,1.2a1.75,1.75,0,0,0-.5,2.4h0a1.65,1.65,0,0,0,2.3.5h0l1.8-1.2a6.53,6.53,0,0,1,3.6-1H800a14.05,14.05,0,0,0,9-3.3l20.3-11.6a2.94,2.94,0,0,1,4,1.1h0a2.69,2.69,0,0,1,.2,2Z" transform="translate(-252.1 -68.9)"/></g><g id="Card_Etebari" data-name="Card Etebari"><path id="Path_89" data-name="Path 89" class="cls-9" d="M686.9,85.4H599.8l74-15.2a9.81,9.81,0,0,1,11.6,7.6Zm-50.1-3.8h45.5l-.6-3a6.11,6.11,0,0,0-7.1-4.7h-.1Z" transform="translate(-252.1 -68.9)"/><path id="Path_90" data-name="Path 90" class="cls-9" d="M575.3,163.7a9.73,9.73,0,0,1-9.5-7.7l-10.6-51.5v-.1A9.67,9.67,0,0,1,562.7,93l9.7-2v52.8a5.85,5.85,0,0,0,5.9,5.9h65.2l-66.2,13.6A3.61,3.61,0,0,1,575.3,163.7Zm-16.4-59.9,10.6,51.5a5.92,5.92,0,0,0,7,4.6l30.7-6.3H578.3a9.71,9.71,0,0,1-9.7-9.7V95.6l-5.2,1.1a5.9,5.9,0,0,0-3.8,2.6,6.87,6.87,0,0,0-.7,4.5Z" transform="translate(-252.1 -68.9)"/><path id="Path_91" data-name="Path 91" class="cls-9" d="M690.9,153.6H578.4a9.71,9.71,0,0,1-9.7-9.7V91.3a9.71,9.71,0,0,1,9.7-9.7H690.9a9.71,9.71,0,0,1,9.7,9.7v52.6A9.84,9.84,0,0,1,690.9,153.6ZM578.4,85.3a5.85,5.85,0,0,0-5.9,5.9h0v52.6a5.85,5.85,0,0,0,5.9,5.9H690.9a5.85,5.85,0,0,0,5.9-5.9h0V91.3a5.85,5.85,0,0,0-5.9-5.9h0l-112.5-.1Z" transform="translate(-252.1 -68.9)"/><rect id="Rectangle_19" data-name="Rectangle 19" class="cls-8" x="369.5" y="65" width="2.1" height="2"/><path id="Path_92" data-name="Path 92" class="cls-8" d="M609.2,92.1V106h14.4V92.1ZM621.6,104H611.3V94h10.3Z" transform="translate(-252.1 -68.9)"/><rect id="Rectangle_20" data-name="Rectangle 20" class="cls-8" x="367.5" y="49.1" width="2.1" height="2"/><path id="Path_93" data-name="Path 93" class="cls-8" d="M619.6,110v2h2v2h-2v2h2v2h2v-8Z" transform="translate(-252.1 -68.9)"/><path id="Path_94" data-name="Path 94" class="cls-8" d="M617.5,112v-2h-2.1v2h-2v2h6.2v-2Z" transform="translate(-252.1 -68.9)"/><rect id="Rectangle_21" data-name="Rectangle 21" class="cls-8" x="363.3" y="47.1" width="2.1" height="2"/><path id="Path_95" data-name="Path 95" class="cls-8" d="M613.4,96.1v6h6.2v-6Z" transform="translate(-252.1 -68.9)"/><path id="Path_96" data-name="Path 96" class="cls-8" d="M615.4,127.9h-2v6h2v2h2v2h2.1v-4h-2v-2h-2Z" transform="translate(-252.1 -68.9)"/><path id="Path_97" data-name="Path 97" class="cls-8" d="M611.3,125.9h4.1v2h2v4h4.1v-6h-4.1v-2h-2v-4h-2V114h-2l-.1,11.9Z" transform="translate(-252.1 -68.9)"/><path id="Path_98" data-name="Path 98" class="cls-8" d="M611.3,129.9h-2v4h-4.1v-6h-2v4h-4.1v2h4.1v2h4.1v2h6.2v-4h-2Z" transform="translate(-252.1 -68.9)"/><rect id="Rectangle_22" data-name="Rectangle 22" class="cls-8" x="357.1" y="41.1" width="2.1" height="2"/><rect id="Rectangle_23" data-name="Rectangle 23" class="cls-8" x="355.1" y="45.1" width="2.1" height="2"/><path id="Path_99" data-name="Path 99" class="cls-8" d="M605.1,94.1h-8.2v-2h-2v4H599v2h4.1v4h2Z" transform="translate(-252.1 -68.9)"/><path id="Path_100" data-name="Path 100" class="cls-8" d="M601,125.9h2v-4h6.2v-4h-2v2H603v-6h-2Z" transform="translate(-252.1 -68.9)"/><path id="Path_101" data-name="Path 101" class="cls-8" d="M596.8,135.9h-2v2H601v-2h-2v-2h-2Z" transform="translate(-252.1 -68.9)"/><path id="Path_102" data-name="Path 102" class="cls-8" d="M596.8,125.9v-4h-2v6h4.1v2h2v-4Z" transform="translate(-252.1 -68.9)"/><path id="Path_103" data-name="Path 103" class="cls-8" d="M596.8,112h-2v2h4.1v-4H603v4h2v-4h2.1v-6H603v-2h-2v4h2v2h-2v-2h-2v2h-2v-2h-2v4h2Z" transform="translate(-252.1 -68.9)"/><rect id="Rectangle_24" data-name="Rectangle 24" class="cls-8" x="344.8" y="33.1" width="2.1" height="2"/><path id="Path_104" data-name="Path 104" class="cls-8" d="M596.8,129.9h-2v4h2Z" transform="translate(-252.1 -68.9)"/><rect id="Rectangle_25" data-name="Rectangle 25" class="cls-8" x="342.1" y="29.4" width="2.1" height="2"/><path id="Path_105" data-name="Path 105" class="cls-8" d="M594.8,118h2v-2h-4.1v2h-2v-2h2v-2h-2v-2h4.1v-2h-6.2v2h-2v2h2v2h-4.1v2h2v2h8.2l.1-2Z" transform="translate(-252.1 -68.9)"/><path id="Path_106" data-name="Path 106" class="cls-8" d="M578.3,123.9v13.9h14.4V123.9Zm12.4,12H580.4V126h10.3Z" transform="translate(-252.1 -68.9)"/><path id="Path_107" data-name="Path 107" class="cls-8" d="M582.4,127.9v6h6.2v-6Z" transform="translate(-252.1 -68.9)"/><path id="Path_108" data-name="Path 108" class="cls-8" d="M582.4,110v2h4.1v-2Z" transform="translate(-252.1 -68.9)"/><path id="Path_109" data-name="Path 109" class="cls-8" d="M588.6,102V96.1h-6.2v6Z" transform="translate(-252.1 -68.9)"/><rect id="Rectangle_26" data-name="Rectangle 26" class="cls-8" x="328.3" y="49.1" width="2.1" height="2"/><rect id="Rectangle_27" data-name="Rectangle 27" class="cls-8" x="328.3" y="45.1" width="2.1" height="2"/><path id="Path_110" data-name="Path 110" class="cls-8" d="M592.7,106V92.1H578.2V106ZM580.4,94.1h10.3V104H580.4Z" transform="translate(-252.1 -68.9)"/><rect id="Rectangle_28" data-name="Rectangle 28" class="cls-8" x="326.2" y="47.1" width="2.1" height="2"/><rect id="Rectangle_29" data-name="Rectangle 29" class="cls-8" x="326.2" y="41.1" width="2.1" height="2"/><path id="Path_111" data-name="Path 111" class="cls-8" d="M690.5,95.2H635.4a2,2,0,0,1,0-4h55.1a2,2,0,0,1,2,2,1.89,1.89,0,0,1-2,2Z" transform="translate(-252.1 -68.9)"/><path id="Path_112" data-name="Path 112" class="cls-8" d="M689.5,103.9H635.3a2,2,0,0,1,0-4h54.1a2,2,0,0,1,2,2A1.86,1.86,0,0,1,689.5,103.9Z" transform="translate(-252.1 -68.9)"/><path id="Path_113" data-name="Path 113" class="cls-8" d="M689.5,112.8H660.3a2,2,0,0,1,0-4h29.2a2,2,0,0,1,0,4Z" transform="translate(-252.1 -68.9)"/><path id="Path_114" data-name="Path 114" class="cls-8" d="M689.5,122.4H635.4a2,2,0,0,1,0-4h54.1a2,2,0,0,1,2,2,2.07,2.07,0,0,1-2,2Z" transform="translate(-252.1 -68.9)"/><path id="Path_115" data-name="Path 115" class="cls-8" d="M689.5,131.4H635.3a2,2,0,0,1,0-4h54.1a2,2,0,0,1,2,2A1.86,1.86,0,0,1,689.5,131.4Z" transform="translate(-252.1 -68.9)"/><path id="Path_116" data-name="Path 116" class="cls-8" d="M690.6,141.3h-7.7a2,2,0,0,1,0-4h7.7a2,2,0,0,1,0,4Z" transform="translate(-252.1 -68.9)"/></g><g id="Enteghal"><path id="Path_120" data-name="Path 120" class="cls-8" d="M499,128.6h-2.5v-4.1a4.69,4.69,0,0,0-4.7-4.7h-9.6v3.9h9.6a.86.86,0,0,1,.8.8v4.1h-2.5a.9.9,0,0,0-.9.9.76.76,0,0,0,.2.5l4.6,6.3a1,1,0,0,0,1.3.3h0l.3-.3,4.3-6.3a1,1,0,0,0-.3-1.3c-.2,0-.4-.1-.6-.1Z" transform="translate(-252.1 -68.9)"/><path id="Path_121" data-name="Path 121" class="cls-9" d="M441.3,197.2h2.5v4.1a4.69,4.69,0,0,0,4.7,4.7h9.6v-3.9h-9.6a.86.86,0,0,1-.8-.8h0v-4.1h2.5a.9.9,0,0,0,.9-.9.76.76,0,0,0-.2-.5l-4.6-6.3a1,1,0,0,0-1.3-.3l-.3.3-4.3,6.3a1,1,0,0,0,.3,1.3,1.27,1.27,0,0,0,.6.1Z" transform="translate(-252.1 -68.9)"/><g id="Capa_1" data-name="Capa 1"><path id="Path_122" data-name="Path 122" class="cls-9" d="M515.16,146h-34.3a4.69,4.69,0,0,0-4.7,4.7v60.6a4.69,4.69,0,0,0,4.7,4.7h34.3a4.69,4.69,0,0,0,4.7-4.7v-60.6A4.7,4.7,0,0,0,515.16,146Zm-17.1,66.7a2.8,2.8,0,1,1,2.79-2.8h0a2.85,2.85,0,0,1-2.79,2.8Zm17-8.7h-34v-49.7h34Z" transform="translate(-252.1 -68.9)"/><path id="Path_123" data-name="Path 123" class="cls-9" d="M499.16,178.05c-2.3-.9-3-1.5-3-2.5,0-.8.6-1.7,2.29-1.7a6.68,6.68,0,0,1,2.71.6.59.59,0,0,0,.4.1.76.76,0,0,0,.7-.5l.4-1.1a.6.6,0,0,0-.4-.8h0a12.76,12.76,0,0,0-2.8-.7.1.1,0,0,1-.1-.1v-1.5a.82.82,0,0,0-.9-.8h-.7a.88.88,0,0,0-.9.8v1.6a.22.22,0,0,1-.2.2,4.51,4.51,0,0,0-3.71,4.4c0,2.7,2.21,3.8,4.61,4.8,1.89.7,2.7,1.5,2.7,2.6s-1.1,2-2.7,2a9,9,0,0,1-3.21-.9c-.1-.1-.2-.1-.4-.1a1,1,0,0,0-.79.5l-.4,1.1a.74.74,0,0,0,.4.9,10.08,10.08,0,0,0,3.4.9c.1,0,.1.1.2.2v1.6a.82.82,0,0,0,.9.8h.79a.88.88,0,0,0,.9-.8V188a.35.35,0,0,1,.1-.2,4.81,4.81,0,0,0,4-4.6C503.45,180.75,502.16,179.25,499.16,178.05Z" transform="translate(-252.1 -68.9)"/></g><g id="Capa_1_copy" data-name="Capa 1 copy"><path id="Path_124" data-name="Path 124" class="cls-8" d="M460.3,111.2H426a4.69,4.69,0,0,0-4.7,4.7v60.6a4.69,4.69,0,0,0,4.7,4.7h34.3a4.69,4.69,0,0,0,4.7-4.7V115.9A4.69,4.69,0,0,0,460.3,111.2Zm-17.1,66.7a2.8,2.8,0,0,1-2.8-2.8,2.73,2.73,0,0,1,2.8-2.8,2.8,2.8,0,0,1,2.8,2.8h0a2.86,2.86,0,0,1-2.8,2.8Zm17-8.8h-34V119.4h34Z" transform="translate(-252.1 -68.9)"/><path id="Path_125" data-name="Path 125" class="cls-8" d="M444.3,143.3c-2.3-.9-3-1.5-3-2.5,0-.8.6-1.7,2.3-1.7a6.6,6.6,0,0,1,2.7.6.6.6,0,0,0,.4.1.75.75,0,0,0,.7-.5l.4-1.1a.6.6,0,0,0-.4-.8h0a12.76,12.76,0,0,0-2.8-.7.1.1,0,0,1-.1-.1v-1.5a.82.82,0,0,0-.9-.8h-.7a.88.88,0,0,0-.9.8v1.6a.22.22,0,0,1-.2.2,4.5,4.5,0,0,0-3.7,4.4c0,2.7,2.2,3.8,4.6,4.8,1.9.7,2.7,1.5,2.7,2.6s-1.1,2-2.7,2a9,9,0,0,1-3.2-.9.84.84,0,0,0-1.1.4v.1l-.4,1.1a.74.74,0,0,0,.4.9,13.12,13.12,0,0,0,3.4.9.22.22,0,0,1,.2.2V155a.82.82,0,0,0,.9.8h.8a.88.88,0,0,0,.9-.8v-2a.35.35,0,0,1,.1-.2h0a4.81,4.81,0,0,0,4-4.6C448.6,145.9,447.4,144.5,444.3,143.3Z" transform="translate(-252.1 -68.9)"/></g></g><g id="Qrcode"><path id="Path_133" data-name="Path 133" class="cls-9" d="M258.4,175.1h47.4V127.7H258.4Zm9.5-38h28.4v28.4H267.9Z" transform="translate(-252.1 -68.9)"/><rect id="Rectangle_30" data-name="Rectangle 30" class="cls-9" x="25.2" y="77.7" width="9.5" height="9.5"/><rect id="Rectangle_31" data-name="Rectangle 31" class="cls-8" x="82.1" y="96.7" width="9.5" height="9.5"/><rect id="Rectangle_32" data-name="Rectangle 32" class="cls-8" x="101.1" y="96.7" width="9.5" height="9.5"/><path id="Path_134" data-name="Path 134" class="cls-8" d="M353.2,137.1h-9.5v-9.5H315.3V175h9.5V146.6h9.5v9.5h28.4V127.7h-9.5Z" transform="translate(-252.1 -68.9)"/><path id="Path_135" data-name="Path 135" class="cls-9" d="M258.4,118.2h47.4V70.8H258.4Zm9.5-37.9h28.4v28.4H267.9Z" transform="translate(-252.1 -68.9)"/><rect id="Rectangle_33" data-name="Rectangle 33" class="cls-9" x="25.2" y="20.8" width="9.5" height="9.5"/><path id="Path_136" data-name="Path 136" class="cls-9" d="M315.2,70.8v47.4h47.4V70.8Zm38,37.9H324.8V80.3h28.4Z" transform="translate(-252.1 -68.9)"/><rect id="Rectangle_34" data-name="Rectangle 34" class="cls-9" x="82.1" y="20.8" width="9.5" height="9.5"/></g></svg>