<svg id="Capa_1" data-name="Capa 1" xmlns="http://www.w3.org/2000/svg" viewBox="0 0 74 74"><defs><style>.cls-1{fill:#e9c4ff;}.cls-2{fill:#974bc4;}.cls-3{fill:none;stroke:#974bc4;stroke-linecap:round;stroke-miterlimit:10;stroke-width:2.31px;}</style></defs><title>Maziyat_Icon</title><circle class="cls-1" cx="37" cy="37" r="37"/><path class="cls-2" d="M809.34,1111.83a26.73,26.73,0,0,0-38,.24,1.44,1.44,0,1,0,2.06,2,23.85,23.85,0,1,1-6.77,16.64v-.3l2.37,2.38a1.48,1.48,0,0,0,1,.42,1.5,1.5,0,0,0,1-.42,1.45,1.45,0,0,0,0-2l-4.82-4.83a1.43,1.43,0,0,0-2,0l-4.83,4.83a1.43,1.43,0,0,0,0,2,1.45,1.45,0,0,0,1,.42,1.5,1.5,0,0,0,1-.42l2.37-2.38v.3a26.73,26.73,0,1,0,45.62-18.9Z" transform="translate(-753 -1094)"/><path class="cls-3" d="M794.7,1129.91a5,5,0,1,1-5-5A5,5,0,0,1,794.7,1129.91Zm7-1.94,2.34-1.7c1.16-.72.5-2.83-.42-4.43a8.38,8.38,0,0,0-1.62-2c-.94-.81-1.61-.75-2-.54l-2.65,1.18a11.9,11.9,0,0,0-3.33-1.92l-.3-2.89c0-1.36-2.21-1.84-4-1.84-2,0-4,.57-4.06,1.85l-.3,2.88a12.18,12.18,0,0,0-3.33,1.92l-2.65-1.18c-1.2-.63-2.7,1-3.62,2.59a8.16,8.16,0,0,0-1,2.42c-.23,1.22.16,1.77.54,2l2.34,1.7a12.58,12.58,0,0,0-.15,1.94,12.32,12.32,0,0,0,.15,1.92l-2.34,1.69c-.38.24-.77.79-.54,2a8.31,8.31,0,0,0,1,2.43c.92,1.59,2.42,3.22,3.62,2.59l2.63-1.18a11.87,11.87,0,0,0,3.36,1.94l.29,2.86c0,.49.37,1.31,2.3,1.69" transform="translate(-753 -1094)"/><path class="cls-3" d="M809.2,1135.21a13.55,13.55,0,0,1-13.41,11.88,14.55,14.55,0,0,1-3.13-.36.77.77,0,0,1-.58-.67,13.18,13.18,0,0,1,0-3,13.56,13.56,0,0,1,15.11-11.77,13.82,13.82,0,0,1,1.43.26.74.74,0,0,1,.58.66A13.18,13.18,0,0,1,809.2,1135.21Z" transform="translate(-753 -1094)"/><line class="cls-3" x1="46.17" y1="46.42" x2="39.24" y2="52.49"/></svg>