<svg id="Layer_1" data-name="Layer 1" xmlns="http://www.w3.org/2000/svg" viewBox="0 0 136 136"><defs><style>.cls-1{fill:#0fb5dd;}.cls-2{fill:none;stroke:#009ade;stroke-width:4.48px;}.cls-3{fill:#fff;}</style></defs><title>Support</title><g id="Support"><g id="Ellipse_26-2" data-name="Ellipse 26-2"><circle class="cls-1" cx="68" cy="68" r="68"/><circle class="cls-2" cx="68" cy="68" r="65.76"/></g><g id="headphones"><path id="Path_270" data-name="Path 270" class="cls-3" d="M98.89,57.26v-3.5a32,32,0,0,0-8.34-21.94A28.75,28.75,0,0,0,69.2,22.64H66.31A28.71,28.71,0,0,0,45,31.82a32,32,0,0,0-8.34,21.94v3.5a12.55,12.55,0,0,0-11.71,12.5v5.47A12.56,12.56,0,0,0,37.45,87.76h7.06a2.3,2.3,0,0,0,2.29-2.29v-26a2.3,2.3,0,0,0-2.29-2.29H41.22V53.76c0-15.13,10.79-26.53,25.07-26.53h2.89c14.31,0,25.08,11.4,25.08,26.53v3.46H91a2.3,2.3,0,0,0-2.3,2.29V85.45A2.3,2.3,0,0,0,91,87.74h3.21c-.93,12-9.18,14.75-13,15.38a8.06,8.06,0,0,0-7.67-5.56H67.77a8.06,8.06,0,1,0,0,16.12h5.75a8.08,8.08,0,0,0,7.78-5.93,21.53,21.53,0,0,0,7.78-2.66c4.15-2.42,9.07-7.38,9.71-17.36a12.56,12.56,0,0,0,11.77-12.51V69.75A12.5,12.5,0,0,0,98.89,57.26ZM42.25,83.15H37.49a7.94,7.94,0,0,1-7.94-7.93V69.75a7.94,7.94,0,0,1,7.94-7.94h4.76Zm31.27,25.94H67.77a3.46,3.46,0,1,1,0-6.92h5.75a3.46,3.46,0,1,1,0,6.92ZM106,75.22A7.93,7.93,0,0,1,98,83.15H93.28V61.81H98A7.93,7.93,0,0,1,106,69.75Z" transform="translate(0 0)"/></g></g></svg>