<svg xmlns="http://www.w3.org/2000/svg" xmlns:xlink="http://www.w3.org/1999/xlink" width="113.899" height="76.76" viewBox="0 0 113.899 76.76"><defs><linearGradient id="a" x1="0.5" y1="0.074" x2="0.5" y2="0.657" gradientUnits="objectBoundingBox"><stop offset="0"/><stop offset="1" stop-opacity="0"/></linearGradient><linearGradient id="b" x1="0.501" y1="0.017" x2="0.501" y2="0.545" xlink:href="#a"/><linearGradient id="c" x1="0.216" y1="0.721" x2="0.541" y2="0.376" xlink:href="#a"/><linearGradient id="d" x1="1.031" y1="0.497" x2="-0.042" y2="0.497" gradientUnits="objectBoundingBox"><stop offset="0" stop-color="#028e99"/><stop offset="1" stop-color="#02728f"/></linearGradient><linearGradient id="e" x1="0.5" y1="0.84" x2="0.5" y2="0.103" gradientUnits="objectBoundingBox"><stop offset="0" stop-color="#0db0c9"/><stop offset="0.51" stop-color="#0b93ad"/><stop offset="0.67" stop-color="#0a89a3"/></linearGradient><linearGradient id="f" x1="0.5" y1="0.965" x2="0.5" y2="0.287" xlink:href="#e"/><linearGradient id="g" x1="0.5" y1="1.012" x2="0.5" y2="-0.024" gradientUnits="objectBoundingBox"><stop offset="0.2" stop-color="#10b5dd"/><stop offset="0.26" stop-color="#19b8de"/><stop offset="0.36" stop-color="#31bfe2"/><stop offset="0.49" stop-color="#59cce7"/><stop offset="0.64" stop-color="#90ddef"/><stop offset="0.81" stop-color="#d6f2f9"/><stop offset="0.9" stop-color="#fff"/></linearGradient><linearGradient id="h" x1="0.495" y1="0.99" x2="0.495" y2="-0.038" xlink:href="#g"/><linearGradient id="i" x1="0.5" y1="0.992" x2="0.5" y2="-0.004" xlink:href="#g"/><linearGradient id="j" x1="0.5" y1="1" x2="0.5" y2="-0.016" xlink:href="#g"/><linearGradient id="k" x1="0.5" y1="1.008" x2="0.5" y2="-0.028" xlink:href="#g"/><linearGradient id="l" x1="0.504" y1="0.958" x2="0.504" y2="-0.05" xlink:href="#g"/></defs><g transform="translate(0 0)"><text transform="translate(25.539 73.76)" font-size="11.43" font-family="SegoeUI, Segoe UI"><tspan x="0" y="0">اریو رصع</tspan></text><path d="M1585,78c-1.6-18.79,6.6-29.58,13.84-35.33,9.82-8.32,22-8.51,22.33-8.58V110.5a28.52,28.52,0,0,1-9.78-1.74l-.13-62.67a32.391,32.391,0,0,0-6.78,4.22c-7.83,6.37-11.18,15.69-10,27.69Z" transform="translate(-1552.101 -34.09)" fill="#10b5dd"/><path d="M73.26,76.3V.05L90.43,16.13l-6.48,6.92-1.21-1.13V54.45L100.12,38.2l-2.83-2.65,6.49-6.92L114,38.21Z" transform="translate(-0.101 0.01)" fill="#10b5dd"/><path d="M1584.48,55.77h-11.61a1.23,1.23,0,0,1,0-2.46h11.61a1.23,1.23,0,0,1,0,2.46Z" transform="translate(-1552.101 -34.09)" fill="#10b5dd"/><path d="M1581.31,64.62h-18.24a1.24,1.24,0,0,1,0-2.47h18.24a1.24,1.24,0,1,1,0,2.47Z" transform="translate(-1552.101 -34.09)" fill="#10b5dd"/><path d="M1580.68,73.56h-27.45a1.24,1.24,0,0,1,0-2.47h27.45a1.24,1.24,0,0,1,0,2.47Z" transform="translate(-1552.101 -34.09)" fill="#10b5dd"/><path d="M1606.75,82.38h-43a1.23,1.23,0,0,1,0-2.46h43a1.23,1.23,0,0,1,0,2.46Z" transform="translate(-1552.101 -34.09)" fill="#10b5dd"/><path d="M1606.75,91.17h-34.56a1.23,1.23,0,0,1,0-2.46h34.56a1.23,1.23,0,0,1,0,2.46Z" transform="translate(-1552.101 -34.09)" fill="#10b5dd"/><path d="M1606.75,100h-24.62a1.24,1.24,0,1,1,0-2.47h24.62a1.24,1.24,0,0,1,0,2.47Z" transform="translate(-1552.101 -34.09)" fill="#10b5dd"/></g><g transform="translate(0 0.01)"><g transform="translate(59.109 6.4)"><g transform="translate(14.05 1.65)" opacity="0.2"><path d="M73.26,8.05V65.09l9.48-9.04V15.52Z" transform="translate(-73.26 -8.05)" fill="url(#a)"/></g><g opacity="0.2"><path d="M1611.21,42.9l.13,46.66a28.76,28.76,0,0,0,9.78,1.74V40.5Z" transform="translate(-1611.21 -40.5)" fill="url(#b)"/></g><g transform="translate(16.66 29.46)" opacity="0.35"><path d="M114,38.21,81.44,68.65l-5.57-7.77,26.76-25.02Z" transform="translate(-75.87 -35.86)" fill="url(#c)"/></g></g><g transform="translate(32.682 29.14)"><path d="M1585,78h9.52a38.639,38.639,0,0,1,.66-12.83,85.938,85.938,0,0,0-9.28-1.93A47.449,47.449,0,0,0,1585,78Z" transform="translate(-1584.783 -63.24)" fill="#06adc9"/><path d="M1621.12,110.51V77.05a86.329,86.329,0,0,0-9.86-5.77l.08,37.49A28.52,28.52,0,0,0,1621.12,110.51Z" transform="translate(-1584.783 -63.24)" fill="#06adc9"/><path d="M1634.74,101.54l-9.48,8.86V80a95.216,95.216,0,0,1,9.48,8.28v13.25Z" transform="translate(-1584.783 -63.24)" fill="#06adc9"/><path d="M1634.74,101.53l6.5-6.07a91.818,91.818,0,0,0-6.36-7l-.14.12v13Z" transform="translate(-1584.783 -63.24)" fill="url(#d)"/></g><g transform="translate(49.568)"><path d="M1621.12,37.14v20.5a95.808,95.808,0,0,1-9.9-7.54V41.3Z" transform="translate(-1601.67 -34.1)" fill="url(#e)"/><path d="M1621.12,34.1a40.191,40.191,0,0,0-19.45,6.4,87.678,87.678,0,0,0,6.71,7,40,40,0,0,1,12.74-4.44Z" transform="translate(-1601.67 -34.1)" fill="#15d6f3"/><path d="M1655.78,62.73l-6.49,6.92.56.52a85,85,0,0,0,16.1,2.18h0Z" transform="translate(-1601.67 -34.1)" fill="#15d6f3"/><path d="M1625.26,40.55V60.23a89.375,89.375,0,0,0,9.48,4.88V46.41Z" transform="translate(-1601.67 -34.1)" fill="url(#f)"/><g transform="translate(23.59 0.05)"><path d="M73.26,13.04,83.95,23.05l6.48-6.92L73.26.05Z" transform="translate(-73.26 -0.05)" fill="#15d6f3"/></g></g><g transform="translate(0 19.21)" opacity="0.8"><path d="M1584.48,55.77h-11.61a1.23,1.23,0,0,1,0-2.46h11.61a1.23,1.23,0,0,1,0,2.46Z" transform="translate(-1552.101 -53.31)" fill="url(#g)"/><path d="M1581.31,64.62h-18.24a1.24,1.24,0,0,1,0-2.47h18.24a1.24,1.24,0,1,1,0,2.47Z" transform="translate(-1552.101 -53.31)" fill="url(#h)"/><path d="M1580.68,73.56h-27.45a1.24,1.24,0,0,1,0-2.47h27.45a1.24,1.24,0,0,1,0,2.47Z" transform="translate(-1552.101 -53.31)" fill="url(#i)"/><path d="M1606.75,82.38h-43a1.23,1.23,0,0,1,0-2.46h43a1.23,1.23,0,0,1,0,2.46Z" transform="translate(-1552.101 -53.31)" fill="url(#j)"/><path d="M1606.75,91.17h-34.56a1.23,1.23,0,0,1,0-2.46h34.56a1.23,1.23,0,0,1,0,2.46Z" transform="translate(-1552.101 -53.31)" fill="url(#k)"/><path d="M1606.75,100h-24.62a1.24,1.24,0,1,1,0-2.47h24.62a1.24,1.24,0,0,1,0,2.47Z" transform="translate(-1552.101 -53.31)" fill="url(#l)"/></g></g></svg>