<?xml version="1.0" encoding="utf-8"?>
<!-- Generator: Adobe Illustrator 23.1.0, SVG Export Plug-In . SVG Version: 6.00 Build 0)  -->
<svg version="1.1" id="Layer_1" xmlns="http://www.w3.org/2000/svg" xmlns:xlink="http://www.w3.org/1999/xlink" x="0px" y="0px"
	 viewBox="0 0 2034.7 1964.7" style="enable-background:new 0 0 2034.7 1964.7;" xml:space="preserve">
<style type="text/css">
	.st0{fill:#E4EEFF;}
</style>
<path id="Back_Khadamat" class="st0" d="M164.2,1335.5c21.2-60.4-21.6-99.6-78.1-145.8C-68.5,1063.2-4.2,891.1,120,860.9
	c88-21.4,96.5-116.2,86.1-197.5c-10.2-80-5.7-210.4,55.9-298.7c53.9-77.1,174.4-82.4,188.5-162.1C481,28.7,703.2-3.6,781.9,50.5
	c51.3,35.3,112.1,62.3,174.8,61.6c69.1-0.7,131-28.4,195.1-46.6c64.1-18.2,140.4-26.6,200.8,7.3c51.7,29,78.7,81.4,120.8,120.7
	C1604,315.5,1859,297.8,1956.9,440c70.1,101.8,15.3,222.5,3.5,335.6c-9.8,94.3,12.5,191.4,6,286.1
	c-13.1,191.8-141.2,354.7-192.9,538.8c-18.2,64.9-27.4,133.5-63.4,191.4c-49.4,78-141.9,127.1-248.1,131.6
	c-143.5,4.7-287-74.7-429.6-64.1c-116.2,8.6-226.9,76-340,39.5c-70.4-22.7-119.1-79.7-174.9-124.9
	C434.9,1706.8,48,1662.6,164.2,1335.5z M136.1,751.6c-4.4,16.2,4.1,32.5,18.8,36.5c14.7,3.9,29-6.3,34.6-22.2
	c18.3-51.6-7.1-58.4-21.8-62.3C144.1,697.2,140.4,735.3,136.1,751.6z M393.5,246.8c17.8-10.5,30.8-26,37-44.1c2.2-4.8,2.2-10.2,0-15
	c-4.1-6.1-11.9-8.7-18.8-6.1c-3.7,2-6.8,4.8-9.3,8.1c-4.5,5.7-10.7,9.8-17.7,11.7c-2.2,0.2-4.3,0.9-6.1,2.1
	C368.9,211.8,370.3,260.4,393.5,246.8L393.5,246.8z M441,163.3c2.6-4.5,3.4-9.8,2.2-14.8c-0.4-3.3-1.9-7.7-5.7-7.8
	c-1.7,0.1-3.4,0.8-4.6,2.1c-5.5,5.1-10.5,12.3-7.2,19.8s12.3,4.9,15.4,0.7L441,163.3z M1001.8,83.8c8.4,0.8,16.8-0.3,24.7-3.3
	c15.2-3.9,29.9-9.6,43.6-17.1c5.6-2.8,10.1-7.5,12.6-13.3c1.3-5.5,0.4-11.4-2.4-16.3c-6.2-12.9-18.2-23.5-33-29.1
	c-20.2-7.5-42.4-4.8-62.5-0.1c-12.5,2.9-25.1,6.8-33.6,15c-14.2,13.7-8.6,26.8,7.4,35.9C973.4,64,983.7,80.8,1001.8,83.8
	L1001.8,83.8z M1016.4,1951.6c6.7,11,35.1,10.3,53.2,12.5c5.3,1,10.8,0.8,16-0.6c6.8-2.4,10.7-8,14.4-13.3
	c6.4-9.5,12.9-21.4,6.3-31.7c-4.9-7.7-15.3-11.3-24.8-13.9c-8.7-2.3-17.5-4.3-26.4-5.8c-4.2-1-8.5-1.2-12.7-0.5
	c-4.9,1.4-9.2,4.3-12.3,8.3C1018.6,1919.6,1009.7,1940.6,1016.4,1951.6z M1817.7,1602.8c-0.1,5.4,0.8,12.2,6.7,14.5
	c4.9,1.9,10.2-0.4,14-3c32.4-21.4,44.1-58.8,54.2-93.8c1.5-4,2-8.3,1.5-12.6c-2.3-8.8-12.1-15-22.2-14.1c-3.4,0.5-6.7,1.6-9.8,3.2
	C1821.8,1516.3,1818.7,1565.2,1817.7,1602.8L1817.7,1602.8z M1988.9,896.7c19.1,39,52.2,13.6,44.7-31.3c-4.6-23.5-7.5-47.4-8.9-71.3
	c-0.2-7.7,0.3-53.8-11.2-56.9c-30.5-8.2-36.5,42.3-39.4,74.3c-3.6,28.4,1.5,57.7,14.9,85.1L1988.9,896.7z"/>
</svg>
