<svg id="Capa_1" data-name="Capa 1" xmlns="http://www.w3.org/2000/svg" viewBox="0 0 74 74"><defs><style>.cls-1{fill:#f4d8b9;}.cls-2{fill:#f4932a;}</style></defs><title>Sohoolat_Icon</title><circle class="cls-1" cx="37" cy="37" r="37"/><circle class="cls-2" cx="36.79" cy="36.96" r="2.88"/><path class="cls-2" d="M328.26,1141a1.15,1.15,0,0,1-.84-.36,1.14,1.14,0,0,1,.06-1.61l9.53-8.93a1.14,1.14,0,0,1,1.56,1.66l-9.54,8.94A1.13,1.13,0,0,1,328.26,1141Z" transform="translate(-301 -1094)"/><path class="cls-2" d="M337.79,1132.34a1.38,1.38,0,0,1-1.38-1.38v-9.35a1.38,1.38,0,0,1,2.76,0V1131A1.38,1.38,0,0,1,337.79,1132.34Z" transform="translate(-301 -1094)"/><path class="cls-2" d="M356.54,1111.94a26.74,26.74,0,0,0-38.05.24,1.44,1.44,0,0,0,2.07,2,23.85,23.85,0,1,1-6.78,16.65v-.3l2.37,2.38a1.47,1.47,0,0,0,1,.41,1.45,1.45,0,0,0,1-.41,1.43,1.43,0,0,0,0-2l-4.82-4.84a1.45,1.45,0,0,0-2,0l-4.83,4.84a1.45,1.45,0,0,0,0,2,1.47,1.47,0,0,0,1,.41,1.49,1.49,0,0,0,1-.41l2.37-2.38v.3a26.73,26.73,0,1,0,45.63-18.9Z" transform="translate(-301 -1094)"/><path class="cls-2" d="M338.62,1112.71H337V1116h1.63Zm0,33.17H337v3.29h1.63ZM356,1131.76v-1.64h-3.29v1.64Zm-33.17,0v-1.64h-3.28v1.64Z" transform="translate(-301 -1094)"/></svg>