<svg id="Layer_1" data-name="Layer 1" xmlns="http://www.w3.org/2000/svg" xmlns:xlink="http://www.w3.org/1999/xlink" viewBox="0 0 2018.71 1352.8"><defs><style>.cls-1{fill:#10b5dd;}.cls-2{opacity:0.2;}.cls-3{fill:url(#linear-gradient);}.cls-4{fill:url(#linear-gradient-2);}.cls-5{opacity:0.35;}.cls-6{fill:url(#linear-gradient-3);}.cls-7{fill:#06adc9;}.cls-8{fill:url(#linear-gradient-4);}.cls-9{fill:url(#linear-gradient-5);}.cls-10{fill:#15d6f3;}.cls-11{fill:url(#linear-gradient-6);}.cls-12{opacity:0.8;}.cls-13{fill:url(#linear-gradient-7);}.cls-14{fill:url(#linear-gradient-8);}.cls-15{fill:url(#linear-gradient-9);}.cls-16{fill:url(#linear-gradient-10);}.cls-17{fill:url(#linear-gradient-11);}.cls-18{fill:url(#linear-gradient-12);}</style><linearGradient id="linear-gradient" x1="2247.75" y1="-549.19" x2="2247.75" y2="39.48" gradientTransform="translate(-866.39 766.4)" gradientUnits="userSpaceOnUse"><stop offset="0"/><stop offset="1" stop-opacity="0"/></linearGradient><linearGradient id="linear-gradient-2" x1="1927.6" y1="-666.9" x2="1927.6" y2="-192.16" gradientTransform="translate(75.25 1189.1)" xlink:href="#linear-gradient"/><linearGradient id="linear-gradient-3" x1="2355.77" y1="286.79" x2="2575.12" y2="86.79" xlink:href="#linear-gradient"/><linearGradient id="linear-gradient-4" x1="2375" y1="282.35" x2="2251.67" y2="282.35" gradientTransform="translate(75.25 1189.1)" gradientUnits="userSpaceOnUse"><stop offset="0" stop-color="#028e99"/><stop offset="1" stop-color="#02728f"/></linearGradient><linearGradient id="linear-gradient-5" x1="1927.6" y1="-436.75" x2="1927.6" y2="-704.08" gradientTransform="translate(75.25 1189.1)" gradientUnits="userSpaceOnUse"><stop offset="0" stop-color="#0db0c9"/><stop offset="0.51" stop-color="#0b93ad"/><stop offset="0.67" stop-color="#0a89a3"/></linearGradient><linearGradient id="linear-gradient-6" x1="2172.5" y1="-261.55" x2="2172.5" y2="-556.33" xlink:href="#linear-gradient-5"/><linearGradient id="linear-gradient-7" x1="1263.85" y1="-411.34" x2="1263.85" y2="-456.44" gradientTransform="translate(75.25 1189.1)" gradientUnits="userSpaceOnUse"><stop offset="0.2" stop-color="#10b5dd"/><stop offset="0.26" stop-color="#19b8de"/><stop offset="0.36" stop-color="#31bfe2"/><stop offset="0.49" stop-color="#59cce7"/><stop offset="0.64" stop-color="#90ddef"/><stop offset="0.81" stop-color="#d6f2f9"/><stop offset="0.9" stop-color="#fff"/></linearGradient><linearGradient id="linear-gradient-8" x1="1149.05" y1="-255.47" x2="1149.05" y2="-300.57" xlink:href="#linear-gradient-7"/><linearGradient id="linear-gradient-9" x1="1056.4" y1="-97.23" x2="1056.4" y2="-140.75" xlink:href="#linear-gradient-7"/><linearGradient id="linear-gradient-10" x1="1380.4" y1="59.4" x2="1380.4" y2="15.09" xlink:href="#linear-gradient-7"/><linearGradient id="linear-gradient-11" x1="1454.95" y1="215.3" x2="1454.95" y2="170.19" xlink:href="#linear-gradient-7"/><linearGradient id="linear-gradient-12" x1="1543" y1="369.58" x2="1543" y2="325.28" xlink:href="#linear-gradient-7"/></defs><title>Asre_Vira_Logo2</title><g id="Asre_Vira" data-name="Asre Vira"><path d="M1348.1,1695.5a3.82,3.82,0,0,1-1.8,3.2,5.14,5.14,0,0,1-2.5.6h-9.2a3.88,3.88,0,0,1-4-2.8,5.07,5.07,0,0,1-.2-1.3V1589.6a4.3,4.3,0,0,1,1.1-2.8,3.63,3.63,0,0,1,2.8-1.2h10a3.68,3.68,0,0,1,3.1,1.7,4.1,4.1,0,0,1,.7,2.2Z" transform="translate(-866.39 -393.6)"/><path d="M1390.1,1679.1a35.56,35.56,0,0,0,12.9,2.4v17.8a20.26,20.26,0,0,1-12.9-4.7v6.2h-.1c0,6.9-4,15.3-12.1,25.1a44.14,44.14,0,0,1-31.3,12.4h-3.3a3.88,3.88,0,0,1-4-2.8,5.85,5.85,0,0,1-.2-1.3v-9.6a4.3,4.3,0,0,1,1.1-2.8,4.8,4.8,0,0,1,2.5-1.4h1c8.4,0,15.4-2.4,21-7.3,5.1-5.5,7.7-9.9,7.7-13.2h-.2v-56a4.3,4.3,0,0,1,1.1-2.8,3.63,3.63,0,0,1,2.8-1.2h10.3a3.68,3.68,0,0,1,3.1,1.7,4.1,4.1,0,0,1,.7,2.2Z" transform="translate(-866.39 -393.6)"/><path d="M1404.3,1699.3a5.42,5.42,0,0,1-2.5-.6,3.82,3.82,0,0,1-1.8-3.2v-10.2a4.39,4.39,0,0,1,.7-2.2,3.56,3.56,0,0,1,3.1-1.7h20.4c4.9,0,8.3-1,10.2-3.1s2.8-5.6,2.8-10.6v-24a4.39,4.39,0,0,1,.7-2.2,3.56,3.56,0,0,1,3.1-1.7h10.1a3.93,3.93,0,0,1,3.9,4v2.5h.1v23.9a30.61,30.61,0,0,1-6.8,20.1,23.41,23.41,0,0,1-18.7,8.9Zm4.6,34.8v-10a4,4,0,0,1,1.2-2.9,3.93,3.93,0,0,1,2.9-1.3h40.1a4.13,4.13,0,0,1,3.3,1.8,4.76,4.76,0,0,1,.7,2.3v10.4a4,4,0,0,1-1.9,3.4,5.83,5.83,0,0,1-2.6.6h-39.3a4.2,4.2,0,0,1-4.2-2.9,6.75,6.75,0,0,1-.2-1.4Z" transform="translate(-866.39 -393.6)"/><path d="M1539.2,1695.6c0,11.9-4.5,21.9-13.4,30.2a44,44,0,0,1-31.3,12.4h-13.1a3.77,3.77,0,0,1-3.9-2.8,5.85,5.85,0,0,1-.2-1.3v-9.6a4.3,4.3,0,0,1,1.1-2.8,3.72,3.72,0,0,1,2.5-1.2v-.2h10.9c8.4,0,15.4-2.4,21-7.3s8.5-9.5,8.8-13.9h-23.8a23.36,23.36,0,0,1-13.5-4.6,33.26,33.26,0,0,1-2.9-2.7,22.52,22.52,0,0,1-6.1-15.6V1658a22.85,22.85,0,0,1,5.6-15,24.09,24.09,0,0,1,3.7-3.4,22.76,22.76,0,0,1,13.3-4.6h18.8a22,22,0,0,1,13.7,4.8,28.91,28.91,0,0,1,3.2,2.9,30,30,0,0,1,3.2,4.7,22.81,22.81,0,0,1,2.6,11.2v37Zm-37.7-44.6a21.1,21.1,0,1,0,21.2,21,20.56,20.56,0,0,0-6.2-14.8A20.23,20.23,0,0,0,1501.5,1651Z" transform="translate(-866.39 -393.6)"/><path d="M1633.3,1679.1a35.56,35.56,0,0,0,12.9,2.4v17.8a20.26,20.26,0,0,1-12.9-4.7v6.2h-.1c0,6.9-4,15.3-12.1,25.1a44.14,44.14,0,0,1-31.3,12.4h-3.3a3.88,3.88,0,0,1-4-2.8,5.85,5.85,0,0,1-.2-1.3v-9.6a4.3,4.3,0,0,1,1.1-2.8,4.8,4.8,0,0,1,2.5-1.4h1c8.4,0,15.4-2.4,21-7.3,5.1-5.5,7.7-9.9,7.7-13.2h-.2v-56a4.3,4.3,0,0,1,1.1-2.8,3.63,3.63,0,0,1,2.8-1.2h10.3a3.68,3.68,0,0,1,3.1,1.7,4.1,4.1,0,0,1,.7,2.2Z" transform="translate(-866.39 -393.6)"/><path d="M1778.7,1681.5h7.6v17.8h-90q-13.8,0-21.6-10.5-10.35,10.5-24,10.5h-8.5v-17.8h9.9c8.3,0,12.4-4.3,12.4-12.9v-10.7a4.3,4.3,0,0,1,1.1-2.8,3.63,3.63,0,0,1,2.8-1.2h9.9a3.68,3.68,0,0,1,3.1,1.7,8.65,8.65,0,0,1,.7,1.7h.1v9c0,10.1,4.4,15.2,13.3,15.2v-22.8a18.55,18.55,0,0,1,3.3-11.1,17.79,17.79,0,0,1,3.9-4.7,37,37,0,0,1,4-3,33.25,33.25,0,0,1,17.1-4.6h27.6a33.24,33.24,0,0,1,16.6,4.4,24.27,24.27,0,0,1,4.6,3.3c4.7,4.5,7.1,9.5,7.1,15v18.2A31,31,0,0,1,1778.7,1681.5Zm-56.8-40.6a21,21,0,1,0,14.8,6.1,20.64,20.64,0,0,0-14.8-6.1Z" transform="translate(-866.39 -393.6)"/><path d="M1810.5,1653c-4.6,2.4-6.8,6.4-6.8,12.1,0,2.5,1.1,5.6,3.4,9.4,2.6,4.6,6.4,6.9,11.2,6.9h23.4c0,.1,0,.1-.1.2,3.1.1,5,.7,5.8,1.8a4.1,4.1,0,0,1,.7,2.2v10a3.82,3.82,0,0,1-1.8,3.2c-.3.1-.6.3-.9.4l.1.3h-63v-17.8h7.4a22.72,22.72,0,0,1-3.7-12.3V1658a22.85,22.85,0,0,1,5.6-15,24.09,24.09,0,0,1,3.7-3.4,22.76,22.76,0,0,1,13.3-4.6h18.8a22,22,0,0,1,13.7,4.8,28.91,28.91,0,0,1,3.2,2.9c.7.9,1.3,1.8,1.9,2.5a4.21,4.21,0,0,1,1.2,4.4c-.4,1.9-1.8,4.3-4.2,6.8l-3.8,3.5-1.7-.4-5.5-4.3c-3.7-2.6-8.5-4-14.5-4A17.53,17.53,0,0,0,1810.5,1653Z" transform="translate(-866.39 -393.6)"/></g><g id="Logo"><path class="cls-1" d="M1450.1,1171.1c-28.3-332.7,117-523.6,245.2-625.6,173.9-147.2,389-150.7,395.3-151.9V1746.4c-61.6-.8-119.5-10.6-173.2-30.8l-2.3-1109.5c-36.8,17.1-79.2,41.3-120.1,74.6-138.5,112.9-197.8,277.8-176.3,490.4Z" transform="translate(-866.39 -393.6)"/><polygon class="cls-1" points="1297.41 1350.9 1297.41 0.9 1601.51 285.6 1486.71 408.2 1465.31 388.1 1465.31 964.1 1773.01 676.4 1722.91 629.4 1837.71 506.9 2018.71 676.5 1297.41 1350.9"/><path class="cls-1" d="M1441.9,777.4H1236.3a21.85,21.85,0,0,1,0-43.7h205.6a21.85,21.85,0,0,1,0,43.7Z" transform="translate(-866.39 -393.6)"/><path class="cls-1" d="M1385.8,933.9H1062.9a21.85,21.85,0,1,1,0-43.7h322.9a21.85,21.85,0,0,1,0,43.7Z" transform="translate(-866.39 -393.6)"/><path class="cls-1" d="M1374.6,1092.2H888.7a21.85,21.85,0,1,1-.9-43.7h486.8a21.85,21.85,0,1,1,.9,43.7Z" transform="translate(-866.39 -393.6)"/><path class="cls-1" d="M1836.1,1248.5H1074.3a21.85,21.85,0,0,1,0-43.7h761.8a21.85,21.85,0,1,1,.9,43.7Z" transform="translate(-866.39 -393.6)"/><path class="cls-1" d="M1836.1,1404.1H1224.2a21.85,21.85,0,0,1,0-43.7h611.9a21.85,21.85,0,1,1,0,43.7Z" transform="translate(-866.39 -393.6)"/><path class="cls-1" d="M1836.1,1559.7H1400.3a21.85,21.85,0,0,1-.9-43.7h436.8a21.85,21.85,0,1,1,.9,43.7Z" transform="translate(-866.39 -393.6)"/></g><g id="Shaows"><g id="Graient"><g id="Stroke_6_copy_3" data-name="Stroke 6 copy 3" class="cls-2"><polygon class="cls-3" points="1297.41 142.6 1297.41 1152.5 1465.31 992.4 1465.31 964.1 1465.31 274.7 1297.41 142.6"/></g><g id="Stroke_6_copy_2" data-name="Stroke 6 copy 2" class="cls-2"><path class="cls-4" d="M1915.1,549.5l2.3,826c53.7,20.2,111.6,30,173.2,30.8V507Z" transform="translate(-866.39 -393.6)"/></g><g id="Layer_12" data-name="Layer 12" class="cls-5"><polygon class="cls-6" points="2018.71 676.5 1442.31 1215.4 1343.61 1077.9 1817.31 634.9 2018.71 676.5"/></g></g><g id="_2" data-name=" 2"><path class="cls-7" d="M1450.1,1171.1h168.6q-12.6-124.65,11.7-227.2a1535.48,1535.48,0,0,0-164.3-34.2C1448.7,985.1,1441.7,1071.8,1450.1,1171.1Z" transform="translate(-866.39 -393.6)"/><path class="cls-7" d="M2090.6,1746.4V1154A1529.92,1529.92,0,0,0,1916,1052l1.4,663.7C1971.1,1735.9,2029,1745.7,2090.6,1746.4Z" transform="translate(-866.39 -393.6)"/><path class="cls-7" d="M2331.7,1587.5l-167.9,156.9v-538A1683.25,1683.25,0,0,1,2331.7,1353v234.5Z" transform="translate(-866.39 -393.6)"/><path class="cls-8" d="M2331.7,1587.5l115.1-107.6c-32-39.1-69.5-81.3-112.7-124.5l-2.4,2.2v229.9Z" transform="translate(-866.39 -393.6)"/></g><g id="_1" data-name=" 1"><path class="cls-9" d="M2090.6,447.5V810.4a1708.82,1708.82,0,0,1-175.3-133.5l-.2-155.8Z" transform="translate(-866.39 -393.6)"/><path class="cls-10" d="M2090.6,393.6c-5.6,1.1-182,4.1-344.3,113.4A1534.08,1534.08,0,0,0,1865,631.5c84-47.3,167.6-68.7,225.6-78.7Z" transform="translate(-866.39 -393.6)"/><path class="cls-10" d="M2704.1,900.5l-114.8,122.6,9.9,9.3a1513.51,1513.51,0,0,0,285,38.6l.9-.8Z" transform="translate(-866.39 -393.6)"/><path class="cls-11" d="M2163.8,507.9V856.3a1582.54,1582.54,0,0,0,167.9,86.3v-331Z" transform="translate(-866.39 -393.6)"/><g id="Stroke_6_copy" data-name="Stroke 6 copy"><polygon class="cls-10" points="1297.41 230.9 1486.71 408.2 1601.51 285.6 1297.41 0.9 1297.41 230.9"/></g></g><g id="Layer_13" data-name="Layer 13" class="cls-12"><path class="cls-13" d="M1441.9,777.4H1236.3a21.85,21.85,0,0,1,0-43.7h205.6a21.85,21.85,0,0,1,0,43.7Z" transform="translate(-866.39 -393.6)"/><path class="cls-14" d="M1385.8,933.9H1062.9a21.85,21.85,0,1,1,0-43.7h322.9a21.85,21.85,0,0,1,0,43.7Z" transform="translate(-866.39 -393.6)"/><path class="cls-15" d="M1374.6,1092.2H888.7a21.85,21.85,0,1,1-.9-43.7h486.8a21.85,21.85,0,1,1,.9,43.7Z" transform="translate(-866.39 -393.6)"/><path class="cls-16" d="M1836.1,1248.5H1074.3a21.85,21.85,0,0,1,0-43.7h761.8a21.85,21.85,0,1,1,.9,43.7Z" transform="translate(-866.39 -393.6)"/><path class="cls-17" d="M1836.1,1404.1H1224.2a21.85,21.85,0,0,1,0-43.7h611.9a21.85,21.85,0,1,1,0,43.7Z" transform="translate(-866.39 -393.6)"/><path class="cls-18" d="M1836.1,1559.7H1400.3a21.85,21.85,0,0,1-.9-43.7h436.8a21.85,21.85,0,1,1,.9,43.7Z" transform="translate(-866.39 -393.6)"/></g></g></svg>