<svg xmlns="http://www.w3.org/2000/svg" width="1599.405" height="1990.643" viewBox="0 0 1599.405 1990.643">
  <path id="Back_Akhbaro_Etelaeie" data-name="Back Akhbaro Etelaeie" d="M348.734,296.326c52.639,4.913,74.679-47.218,99.415-114.531C515.852-2.458,666.626,15.28,717.21,128.73c35.857,80.383,113.1,63.874,175.611,32.379,61.5-30.954,166.31-60.68,249.784-23.683,72.927,32.428,102.853,148.876,169.309,141.7,144.91-15.625,218.107,193.048,191.821,284.093-17.12,59.4-25.646,125.881-11.694,187,15.333,67.314,50.55,120.624,78.723,178.5s51.157,130.205,37.07,198.108c-12.031,58.126-47.989,98.268-70.332,149.712-69.287,159.538-.741,404.078-93.079,537.084-66.119,95.172-173.926,73.209-266.432,91.389-77.139,15.133-149.729,62.4-226.531,80.874-155.492,37.489-312.568-45.056-470.216-47.365-55.538-.835-112.12,8.206-165.905-11.792-72.632-27.8-131.457-105.36-157.716-207.935-34.374-139.049-1.82-300.012-40.642-436.6C85.369,1170.911,8.061,1080.358,12.914,960.274c3.033-74.733,38.047-137.28,62.143-203.611C110.879,658.1,63.463,268.467,348.734,296.326ZM807.661,115.808c-13.851,0-25.039,12.529-25.039,27.957s11.222,26.68,25.039,28.006c44.99,4.324,44.99-22.209,44.99-37.637C852.651,109.421,821.512,115.808,807.661,115.808Zm456.9,119.3c12.174,14.655,27.239,23.262,43,24.567,4.174.914,8.431-.488,11.93-3.931,4-5.19,4.391-14.107.876-20a22.905,22.905,0,0,0-8.459-6.928c-5.284-2.608-9.871-7.576-13.109-14.2a14.869,14.869,0,0,0-2.966-5.454C1287.111,201.94,1248.727,216.041,1264.566,235.105Zm76.634,24.567a14.032,14.032,0,0,0,12.267-1.72c2.561-1.228,5.7-3.882,5.021-7.616a6.481,6.481,0,0,0-2.662-3.931c-5.223-4.078-12.031-7.075-17.322-1.867s-1.281,13.315,2.7,15.281ZM1524.157,786.88a62.9,62.9,0,0,0,7.919,23.29,193.857,193.857,0,0,0,22.95,38.177c3.652,4.931,8.3,8.015,13.244,8.8,4.541-.126,8.926-2.441,12.469-6.584,8.968-9.427,14.821-23.894,16.142-39.9,1.685-21.668-5.223-42.7-13.244-61.123-4.954-11.448-10.75-22.8-19.074-28.891-13.952-10.269-23.186-1.327-26.96,16.656C1533.9,753.911,1522.708,768.406,1524.157,786.88ZM40.076,1290.5c-7.347,9.434-.708,37.047,1.449,55.275a44.287,44.287,0,0,0,3.875,15.477c3.37,5.995,8.627,8.4,13.649,10.564,8.964,3.783,19.782,6.977,26.623-2.162,5.055-6.83,5.763-17.885,5.763-27.859q0-13.7-1.011-27.325A39.885,39.885,0,0,0,88.1,1301.9a21.635,21.635,0,0,0-9.268-9.827C66.025,1284.313,47.422,1281.07,40.076,1290.5Zm448.817,691.659c-4.347,1.277-9.537,3.98-10.11,10.318-.505,5.258,2.527,9.827,5.426,12.922,23.994,26.041,56.245,27.712,86.272,28.35a18.517,18.517,0,0,0,10.346-1.867c6.469-4.582,9.331-15.761,6.5-25.4a33.22,33.22,0,0,0-4.617-8.7C558.651,1963.591,519.02,1973.369,488.892,1982.164Zm598.715-17.639c-26.96,28.842.3,54.588,34.475,35.475a394.251,394.251,0,0,1,54.9-27.368c6.1-2.211,42.934-13.807,42.934-25.894,0-31.937-41.485-24.567-67.6-19.064-23.352,3.907-45.6,16.606-64.569,36.851Z" transform="translate(1612.1 2033.871) rotate(-180)" fill="#e4eeff"/>
</svg>
